<?xml version="1.0" encoding="iso-8859-1"?>
<!-- Generator: Adobe Illustrator 19.1.0, SVG Export Plug-In . SVG Version: 6.00 Build 0)  -->
<!DOCTYPE svg PUBLIC "-//W3C//DTD SVG 1.1//EN" "http://www.w3.org/Graphics/SVG/1.1/DTD/svg11.dtd">
<svg version="1.1" xmlns="http://www.w3.org/2000/svg" xmlns:xlink="http://www.w3.org/1999/xlink" x="0px" y="0px"
	 viewBox="0 0 400 300" style="enable-background:new 0 0 400 300;" xml:space="preserve">
<g id="bitcamp">
	<g>
		<g>
			<g>
				<polygon style="fill:#FF7040;" points="191.496,99.704 191.496,91.166 182.987,91.166 182.987,99.704 165.975,99.704 
					165.975,133.73 174.48,133.73 174.48,108.213 200.002,108.213 200.002,99.704 				"/>
				<polygon style="fill:#FF4046;" points="182.987,74.139 182.987,82.646 174.48,82.646 174.48,91.166 165.975,91.166 
					165.975,99.704 182.987,99.704 182.987,91.166 191.496,91.166 191.496,74.139 				"/>
				<rect x="191.496" y="65.632" style="fill:#FF4046;" width="8.507" height="8.507"/>
				<rect x="217.014" y="91.166" style="fill:#FF4046;" width="8.507" height="8.539"/>
				<rect x="208.507" y="82.646" style="fill:#FF4046;" width="8.507" height="8.52"/>
				<polygon style="fill:#FF7040;" points="225.521,108.213 225.521,99.704 208.507,99.704 208.507,108.213 217.014,108.213 
					217.014,116.719 225.521,116.719 225.521,133.73 234.026,133.73 234.026,108.213 				"/>
				<polygon style="fill:#FFAF40;" points="217.014,116.719 217.014,108.213 174.48,108.213 174.48,142.242 182.987,142.242 
					182.987,116.719 208.507,116.719 208.507,125.227 217.014,125.227 217.014,142.242 225.521,142.242 225.521,116.719 				"/>
				<path style="fill:#FFEF40;" d="M208.507,125.227v-8.508h-25.52v34.03h34.026v-25.522H208.507z M208.507,142.242h-17.011v-17.014
					h8.507v8.503h8.504V142.242z"/>
				<polygon style="fill:#FFFFFF;" points="200.002,133.73 200.002,125.227 191.496,125.227 191.496,142.242 208.507,142.242 
					208.507,133.73 				"/>
			</g>
			<g>
				<path style="fill:#806D60;" d="M268.096,189.076c0,7.052-5.705,12.759-12.76,12.759l0,0c-7.051,0-12.775-5.707-12.775-12.759
					l0,0c0-7.055,5.724-12.785,12.775-12.785l0,0C262.389,176.291,268.096,182.021,268.096,189.076L268.096,189.076z"/>
				<path style="fill:#806D60;" d="M141.112,176.792l0.002,0.011c0.133-0.038,0.27-0.071,0.404-0.105L141.112,176.792z"/>
				<path style="fill:#806D60;" d="M268.096,163.508c0-7.051-5.705-12.759-12.76-12.759c-1.145,0-2.249,0.165-3.305,0.447
					l-0.005-0.018L142.291,176.52c0.77-0.146,1.563-0.23,2.375-0.23c7.053,0,12.772,5.73,12.772,12.785
					c0,5.906-4.015,10.853-9.462,12.311l0.005,0.017l110.724-25.556l-0.006-0.022C264.115,174.346,268.096,169.396,268.096,163.508z
					"/>
				<path style="fill:#A68E7C;" d="M157.438,189.076c0,7.052-5.717,12.759-12.772,12.759l0,0c-7.053,0-12.757-5.707-12.757-12.759
					l0,0c0-7.055,5.704-12.785,12.757-12.785l0,0C151.721,176.291,157.438,182.021,157.438,189.076L157.438,189.076z"/>
				<path style="fill:#A68E7C;" d="M242.56,189.076c0-7.055,5.724-12.785,12.775-12.785c0.811,0,1.6,0.084,2.368,0.228
					l-109.723-25.34l-0.005,0.008c-1.065-0.255-2.14-0.438-3.31-0.438c-7.053,0-12.456,5.708-12.456,12.759
					c0,5.825,4.376,10.747,9.497,12.28l-0.051,0.043c0.336,0.103,0.501,0.196,0.847,0.225l109.522,25.348l0.005-0.016
					C246.583,199.931,242.56,194.982,242.56,189.076z"/>
				<path style="fill:#A68E7C;" d="M258.886,176.801l0.002-0.01l-0.383-0.089C258.632,176.737,258.76,176.765,258.886,176.801z"/>
			</g>
		</g>
		<g>
			<path style="fill:#806D60;" d="M309.098,92.167c-0.745-1.579-1.492-3.139-2.261-4.674l-1.518,0.783
				c0.776,1.512,1.523,3.042,2.231,4.597L309.098,92.167z"/>
			<path style="fill:#806D60;" d="M309.01,192.511c0.714-1.567,1.387-3.154,2.068-4.714l-1.586-0.671
				c-0.643,1.581-1.335,3.14-2.037,4.678L309.01,192.511z"/>
			<path style="fill:#806D60;" d="M316.065,111.598c-0.427-1.652-0.922-3.334-1.425-4.955l-1.629,0.507
				c0.502,1.596,0.963,3.245,1.386,4.868L316.065,111.598z"/>
			<path style="fill:#806D60;" d="M312.995,101.713c-0.599-1.609-1.19-3.239-1.867-4.802l-1.543,0.623
				c0.62,1.581,1.248,3.173,1.793,4.762L312.995,101.713z"/>
			<path style="fill:#806D60;" d="M316.588,121.993l1.664-0.297c-0.303-1.69-0.602-3.409-0.984-5.074l-1.647,0.379
				C315.955,118.633,316.287,120.297,316.588,121.993z"/>
			<path style="fill:#806D60;" d="M298.848,74.191c-0.97-1.404-1.978-2.829-3.027-4.176l-1.328,1.03
				c1.027,1.326,2.015,2.726,2.973,4.106L298.848,74.191z"/>
			<path style="fill:#806D60;" d="M285.752,58.269c-1.237-1.246-2.464-2.44-3.716-3.603l-1.145,1.239
				c1.231,1.142,2.435,2.36,3.615,3.566L285.752,58.269z"/>
			<path style="fill:#806D60;" d="M292.637,65.951c-1.104-1.341-2.212-2.658-3.368-3.915l-1.251,1.137
				c1.12,1.263,2.249,2.555,3.294,3.875L292.637,65.951z"/>
			<path style="fill:#806D60;" d="M278.218,51.228c-1.306-1.141-2.649-2.249-4.012-3.281l-1.023,1.305
				c1.301,1.059,2.621,2.152,3.916,3.244L278.218,51.228z"/>
			<path style="fill:#806D60;" d="M304.341,82.938c-0.827-1.496-1.74-2.972-2.636-4.418l-1.425,0.884
				c0.879,1.464,1.773,2.917,2.582,4.396L304.341,82.938z"/>
			<path style="fill:#806D60;" d="M298.809,210.41c0.976-1.441,1.911-2.865,2.816-4.312l-1.432-0.922
				c-0.885,1.457-1.85,2.857-2.806,4.264L298.809,210.41z"/>
			<path style="fill:#806D60;" d="M317.884,132.093l1.69-0.169c-0.166-1.716-0.342-3.416-0.554-5.108l-1.675,0.211
				C317.552,128.691,317.72,130.361,317.884,132.093z"/>
			<path style="fill:#806D60;" d="M80.966,157.574c0.212,1.704,0.465,3.404,0.763,5.12l1.665-0.294
				c-0.283-1.679-0.539-3.36-0.754-5.034L80.966,157.574z"/>
			<path style="fill:#806D60;" d="M270.112,44.822c-1.419-1.005-2.819-1.972-4.244-2.909l-0.953,1.403
				c1.429,0.921,2.806,1.893,4.199,2.898L270.112,44.822z"/>
			<path style="fill:#806D60;" d="M80.097,147.289c0.068,1.721,0.194,3.43,0.321,5.15l1.689-0.144
				c-0.129-1.67-0.252-3.372-0.289-5.089L80.097,147.289z"/>
			<path style="fill:#806D60;" d="M90.387,186.838l-1.562,0.648c0.63,1.617,1.314,3.167,2.061,4.748l1.511-0.702
				C91.698,189.986,91.036,188.412,90.387,186.838z"/>
			<path style="fill:#806D60;" d="M318.293,142.242v-0.014H320v0.014c0-1.724-0.043-3.436-0.104-5.137l-1.72,0.037
				C318.254,138.861,318.293,140.543,318.293,142.242z"/>
			<path style="fill:#806D60;" d="M94.656,196.129l-1.509,0.754c0.757,1.526,1.58,3.042,2.445,4.54l1.475-0.815
				C96.213,199.141,95.408,197.641,94.656,196.129z"/>
			<path style="fill:#806D60;" d="M82.709,167.753c0.388,1.696,0.77,3.355,1.195,5.021l1.669-0.443
				c-0.455-1.616-0.837-3.293-1.212-4.94L82.709,167.753z"/>
			<path style="fill:#806D60;" d="M88.584,182.072c-0.587-1.587-1.13-3.22-1.633-4.826l-1.604,0.501
				c0.51,1.623,1.021,3.3,1.617,4.892L88.584,182.072z"/>
			<path style="fill:#806D60;" d="M314.365,172.68l1.628,0.425c0.429-1.643,0.865-3.342,1.209-5.019l-1.643-0.337
				C315.169,169.393,314.795,171.023,314.365,172.68z"/>
			<path style="fill:#806D60;" d="M311.333,182.38l1.575,0.591c0.596-1.635,1.155-3.246,1.669-4.912l-1.643-0.506
				C312.425,179.191,311.879,180.811,311.333,182.38z"/>
			<path style="fill:#806D60;" d="M319.896,147.656l-1.725-0.087c-0.041,1.691-0.175,3.373-0.303,5.089l1.685,0.128
				C319.682,151.088,319.817,149.379,319.896,147.656z"/>
			<path style="fill:#806D60;" d="M99.683,204.962l-1.46,0.932c0.946,1.451,1.88,2.879,2.853,4.304l1.383-0.978
				C101.502,207.84,100.582,206.426,99.683,204.962z"/>
			<path style="fill:#806D60;" d="M316.541,162.731l1.663,0.283c0.303-1.677,0.562-3.367,0.783-5.074l-1.674-0.232
				C317.094,159.398,316.835,161.062,316.541,162.731z"/>
			<path style="fill:#806D60;" d="M304.299,201.658c0.824-1.5,1.658-3.011,2.451-4.52l-1.511-0.764
				c-0.781,1.511-1.603,2.994-2.413,4.455L304.299,201.658z"/>
			<path style="fill:#806D60;" d="M105.509,71.046l-1.33-1.03c-1.043,1.347-2.051,2.767-3.023,4.167l1.381,0.96
				C103.495,73.768,104.486,72.371,105.509,71.046z"/>
			<path style="fill:#806D60;" d="M94.706,88.225l-1.517-0.783c-0.786,1.527-1.539,3.078-2.255,4.653l1.554,0.703
				C93.189,91.252,93.928,89.724,94.706,88.225z"/>
			<path style="fill:#806D60;" d="M99.738,79.386L98.309,78.5c-0.897,1.444-1.805,2.912-2.643,4.406l1.489,0.859
				C97.963,82.298,98.856,80.851,99.738,79.386z"/>
			<path style="fill:#806D60;" d="M135.085,43.314l-0.94-1.41c-1.427,0.938-2.83,1.913-4.25,2.917l0.99,1.392
				C132.283,45.211,133.666,44.236,135.085,43.314z"/>
			<path style="fill:#806D60;" d="M126.813,49.255l-1.02-1.306c-1.371,1.032-2.712,2.143-4.012,3.284l1.115,1.262
				C124.189,51.408,125.509,50.315,126.813,49.255z"/>
			<path style="fill:#806D60;" d="M119.106,55.915l-1.147-1.24c-1.258,1.166-2.482,2.359-3.713,3.594l1.245,1.213
				C116.666,58.269,117.872,57.058,119.106,55.915z"/>
			<path style="fill:#806D60;" d="M111.982,63.185l-1.252-1.148c-1.16,1.269-2.264,2.58-3.371,3.923l1.325,1.097
				C109.729,65.738,110.853,64.446,111.982,63.185z"/>
			<path style="fill:#806D60;" d="M82.678,126.892L81,126.679c-0.213,1.688-0.401,3.406-0.561,5.152l1.684,0.126
				C82.295,130.272,82.464,128.579,82.678,126.892z"/>
			<path style="fill:#806D60;" d="M81.828,137.111l-1.731-0.056c-0.047,1.703-0.096,3.465-0.097,5.172h1.695
				C81.696,140.52,81.74,138.785,81.828,137.111z"/>
			<path style="fill:#806D60;" d="M87.033,107.019l-1.649-0.508c-0.511,1.667-0.988,3.32-1.413,4.99l1.648,0.428
				C86.067,110.26,86.531,108.653,87.033,107.019z"/>
			<path style="fill:#806D60;" d="M90.463,97.443l-1.582-0.633c-0.636,1.608-1.252,3.184-1.83,4.83l1.582,0.575
				C89.212,100.61,89.838,99.012,90.463,97.443z"/>
			<path style="fill:#806D60;" d="M84.412,116.865l-1.646-0.341c-0.388,1.667-0.687,3.344-0.989,5.037l1.664,0.297
				C83.738,120.194,84.079,118.533,84.412,116.865z"/>
			<path style="fill:#806D60;" d="M162.525,29.979l-0.545-1.593c-1.619,0.518-3.265,1.114-4.844,1.75l0.581,1.559
				C159.315,31.114,160.936,30.528,162.525,29.979z"/>
			<path style="fill:#806D60;" d="M200.002,23.92c0.874,0,1.736,0.01,2.619,0.031l0.018-1.691c-0.832-0.023-1.69-0.032-2.512-0.032
				c-0.905-0.008-1.763,0.007-2.653,0.03l0.041,1.69C198.355,23.929,199.159,23.92,200.002,23.92z"/>
			<path style="fill:#806D60;" d="M223.159,24.451c-1.691-0.333-3.4-0.598-5.1-0.856l-0.252,1.67
				c1.67,0.252,3.371,0.549,5.014,0.861L223.159,24.451z"/>
			<path style="fill:#806D60;" d="M212.932,22.904c-1.702-0.169-3.411-0.299-5.13-0.429l-0.127,1.688
				c1.737,0.13,3.412,0.257,5.079,0.458L212.932,22.904z"/>
			<path style="fill:#806D60;" d="M143.856,38.093l-0.822-1.498c-1.519,0.829-3.017,1.659-4.488,2.566l0.846,1.453
				C140.867,39.724,142.362,38.913,143.856,38.093z"/>
			<path style="fill:#806D60;" d="M242.979,30.144c-1.62-0.6-3.214-1.196-4.874-1.753l-0.543,1.635
				c1.627,0.544,3.241,1.122,4.794,1.71L242.979,30.144z"/>
			<path style="fill:#806D60;" d="M252.413,34.249c-1.548-0.751-3.076-1.46-4.662-2.133l-0.67,1.544
				c1.524,0.687,3.066,1.389,4.589,2.125L252.413,34.249z"/>
			<path style="fill:#806D60;" d="M233.193,26.881c-1.676-0.498-3.324-0.927-4.986-1.312l-0.425,1.635
				c1.68,0.422,3.3,0.846,4.947,1.307L233.193,26.881z"/>
			<path style="fill:#806D60;" d="M261.484,39.176c-1.468-0.903-2.959-1.749-4.475-2.555l-0.819,1.495
				c1.487,0.815,2.956,1.625,4.443,2.514L261.484,39.176z"/>
			<path style="fill:#806D60;" d="M153.003,33.65l-0.666-1.572c-1.598,0.673-3.176,1.389-4.698,2.14l0.756,1.539
				C149.904,35.015,151.43,34.312,153.003,33.65z"/>
			<path style="fill:#806D60;" d="M182.294,25.244l-0.248-1.667c-1.709,0.256-3.396,0.542-5.064,0.854l0.291,1.694
				C178.961,25.792,180.617,25.498,182.294,25.244z"/>
			<path style="fill:#806D60;" d="M172.309,27.178l-0.376-1.64c-1.691,0.385-3.36,0.842-4.989,1.323l0.459,1.618
				C169.009,28.017,170.673,27.599,172.309,27.178z"/>
			<path style="fill:#806D60;" d="M192.42,24.154l-0.084-1.685c-1.751,0.127-3.467,0.255-5.162,0.423l0.17,1.722
				C189.055,24.405,190.732,24.283,192.42,24.154z"/>
		</g>
		<g>
			<path style="fill:#FF7040;" d="M115.329,250.281c0,2.456-0.335,4.74-0.993,6.855c-0.642,2.072-1.597,3.904-2.845,5.455
				c-1.224,1.548-2.706,2.749-4.44,3.598c-1.739,0.877-3.676,1.3-5.86,1.3c-4.744,0-10.088-0.573-16.079-1.803v-10.309v-29.753
				c-0.809-0.12-1.486-0.252-1.99-0.349c-0.505-0.057-0.836-0.122-1.044-0.16c-0.228-0.037-0.389-0.068-0.474-0.087
				c-1.063-0.222-1.604-0.877-1.604-2.009v-3.778h5.112h7.891v18.835c1.313-1.372,2.781-2.5,4.414-3.29
				c1.661-0.84,3.564-1.242,5.782-1.242c1.774,0,3.436,0.35,4.915,1.084c1.481,0.739,2.767,1.829,3.86,3.226
				c1.047,1.44,1.891,3.188,2.496,5.236C115.026,245.178,115.329,247.589,115.329,250.281z M107.181,250.281
				c0-1.919-0.184-3.572-0.469-4.924c-0.311-1.311-0.757-2.415-1.328-3.263c-0.593-0.807-1.282-1.435-2.119-1.8
				c-0.824-0.411-1.753-0.592-2.81-0.592c-1.623,0-3.038,0.366-4.204,1.05c-1.145,0.685-2.245,1.665-3.249,2.928v17.183
				c2.158,0.388,4.265,0.581,6.394,0.581c1.184,0,2.275-0.22,3.229-0.661c0.956-0.443,1.783-1.123,2.444-2.067
				c0.657-0.905,1.177-2.07,1.56-3.482C106.967,253.851,107.181,252.168,107.181,250.281z"/>
			<path style="fill:#FF7040;" d="M135.85,263.232v3.781h-4.825h-7.932h-4.829v-3.781c0-1.085,0.502-1.783,1.581-2.011
				c0.112-0.023,0.221-0.045,0.425-0.055c0.166-0.025,0.495-0.096,0.948-0.19c0.459-0.057,1.067-0.188,1.873-0.313v-20.257
				c-0.809-0.121-1.417-0.254-1.873-0.333c-0.453-0.071-0.782-0.138-0.949-0.177c-0.206-0.039-0.315-0.066-0.425-0.068
				c-1.079-0.244-1.581-0.901-1.581-2.009v-3.772h4.829h7.932v26.617c0.8,0.124,1.422,0.256,1.874,0.313
				c0.456,0.098,0.785,0.166,0.946,0.19c0.207,0.01,0.321,0.032,0.428,0.055C135.341,261.449,135.85,262.147,135.85,263.232z
				 M131.798,226.355c-0.282,0.62-0.671,1.147-1.122,1.588c-0.456,0.44-0.999,0.818-1.62,1.081
				c-0.614,0.256-1.261,0.391-2.002,0.391c-0.669,0-1.297-0.135-1.927-0.391c-0.591-0.264-1.115-0.641-1.596-1.081
				c-0.441-0.441-0.774-0.969-1.043-1.588c-0.269-0.59-0.426-1.239-0.426-1.915c0-0.697,0.158-1.393,0.426-1.99
				c0.269-0.643,0.602-1.184,1.043-1.623c0.481-0.443,1.005-0.823,1.596-1.086c0.628-0.258,1.257-0.389,1.927-0.389
				c0.742,0,1.389,0.13,2.002,0.389c0.623,0.266,1.166,0.643,1.62,1.086c0.451,0.439,0.838,0.978,1.122,1.623
				c0.273,0.597,0.399,1.293,0.399,1.99C132.199,225.116,132.071,225.766,131.798,226.355z"/>
			<path style="fill:#FF7040;" d="M144.292,265.118c-1.541-1.635-2.313-3.867-2.313-6.708v-18.415h-3.344
				c-0.414,0-0.782-0.163-1.08-0.423c-0.318-0.258-0.462-0.707-0.462-1.25v-3.155l5.28-0.864l1.664-9.018
				c0.089-0.415,0.286-0.76,0.591-0.994c0.294-0.236,0.708-0.327,1.171-0.327h4.106v10.352h8.637v5.683h-8.637v17.882
				c0,1.029,0.246,1.8,0.749,2.389c0.506,0.593,1.218,0.892,2.048,0.892c0.486,0,0.927-0.072,1.228-0.212
				c0.344-0.091,0.639-0.237,0.887-0.347c0.244-0.15,0.456-0.251,0.639-0.391c0.22-0.092,0.408-0.163,0.588-0.163
				c0.232,0,0.414,0.068,0.59,0.163c0.13,0.14,0.301,0.303,0.477,0.538l2.343,3.873c-1.133,0.957-2.468,1.681-3.963,2.17
				c-1.493,0.494-3.046,0.738-4.62,0.738C148.013,267.529,145.836,266.71,144.292,265.118z"/>
			<path style="fill:#FF7040;" d="M188.968,262.115c-0.895,1.036-1.84,1.87-2.866,2.567c-1.03,0.719-2.058,1.259-3.174,1.691
				c-1.117,0.402-2.235,0.704-3.393,0.862c-1.208,0.205-2.356,0.258-3.515,0.258c-2.009,0-3.945-0.361-5.745-1.122
				c-1.789-0.762-3.33-1.892-4.679-3.338c-1.349-1.447-2.386-3.237-3.155-5.362c-0.783-2.085-1.2-4.518-1.2-7.205
				c0-2.407,0.362-4.649,1.045-6.727c0.684-2.076,1.707-3.872,3.068-5.385c1.364-1.512,3.012-2.684,4.994-3.549
				c1.983-0.84,4.272-1.262,6.872-1.262c2.64,0,6.079,0.762,10.351,2.362v10.163h-0.273h-0.781h-2.658
				c-0.807,0-1.31-0.423-1.493-1.221c-0.071-0.516-0.269-2.075-0.517-4.646c-1.654-0.404-3.068-0.632-4.156-0.632
				c-1.411,0-2.623,0.255-3.678,0.76c-1.009,0.502-1.898,1.243-2.581,2.176c-0.69,0.931-1.207,2.087-1.564,3.405
				c-0.355,1.355-0.514,2.873-0.514,4.557c0,1.753,0.175,3.331,0.572,4.676c0.35,1.39,0.897,2.523,1.593,3.49
				c0.73,0.919,1.568,1.616,2.574,2.097c1.001,0.476,2.155,0.716,3.417,0.716c1.259,0,2.27-0.139,3.027-0.459
				c0.776-0.321,1.462-0.635,2-1.032c0.512-0.35,0.995-0.71,1.374-1.033c0.39-0.275,0.852-0.457,1.342-0.457
				c0.621,0,1.097,0.245,1.429,0.737L188.968,262.115z"/>
			<path style="fill:#FF7040;" d="M223.733,263.176v3.77h-4.008h-0.848h-2.676c-0.761,0-1.341-0.096-1.765-0.319
				c-0.45-0.218-0.746-0.685-0.989-1.381l-0.694-2.318c-0.828,0.746-1.631,1.39-2.445,1.969c-0.805,0.542-1.641,1.044-2.475,1.419
				c-0.872,0.376-1.763,0.66-2.716,0.876c-0.971,0.193-2.035,0.264-3.234,0.264c-1.37,0-2.657-0.177-3.817-0.529
				c-1.203-0.402-2.21-0.977-3.027-1.728c-0.861-0.751-1.501-1.674-1.965-2.771c-0.478-1.133-0.733-2.447-0.733-3.923
				c0-1.246,0.33-2.47,1.004-3.678c0.639-1.207,1.739-2.319,3.256-3.294c1.514-0.972,3.53-1.797,6.041-2.421
				c2.512-0.67,5.642-0.998,9.375-0.998v-1.938c0-2.219-0.457-3.845-1.372-4.927c-0.96-1.079-2.283-1.621-4.058-1.621
				c-1.287,0-2.367,0.178-3.196,0.45c-0.872,0.303-1.611,0.654-2.256,1.006c-0.611,0.394-1.207,0.748-1.753,1.017
				c-0.512,0.307-1.094,0.484-1.763,0.484c-0.502,0-0.988-0.166-1.354-0.446c-0.408-0.282-0.681-0.598-0.916-1.035l-1.474-2.532
				c3.782-3.475,8.348-5.208,13.7-5.208c1.907,0,3.612,0.328,5.119,0.945c1.505,0.649,2.783,1.507,3.838,2.653
				c1.054,1.108,1.861,2.464,2.41,4.037c0.52,1.574,0.783,3.281,0.783,5.119v14.62c0.738,0.152,1.299,0.225,1.72,0.313
				c0.374,0.086,0.603,0.12,0.677,0.12C223.203,261.416,223.733,262.072,223.733,263.176z M212.015,252.972
				c-2.318,0-4.229,0.159-5.779,0.423c-1.559,0.299-2.799,0.694-3.729,1.136c-0.927,0.445-1.627,0.977-2.001,1.604
				c-0.376,0.575-0.61,1.261-0.61,1.964c0,1.386,0.438,2.387,1.238,3.012c0.824,0.579,1.913,0.885,3.249,0.885
				c0.777,0,1.524-0.071,2.239-0.212c0.672-0.132,1.299-0.364,1.929-0.651c0.62-0.305,1.181-0.688,1.758-1.11
				c0.579-0.42,1.117-0.931,1.707-1.539L212.015,252.972L212.015,252.972z"/>
			<path style="fill:#FF7040;" d="M283.526,263.232v3.783h-4.824h-7.936v-20.971c0-2.118-0.451-3.702-1.356-4.738
				c-0.947-1.071-2.263-1.605-4.037-1.605c-0.824,0-1.576,0.127-2.257,0.403c-0.713,0.282-1.313,0.71-1.838,1.228
				c-0.527,0.505-0.921,1.182-1.23,1.982c-0.311,0.776-0.439,1.691-0.439,2.727v14.621c0.786,0.127,1.419,0.256,1.872,0.309
				c0.453,0.099,0.782,0.166,0.944,0.195c0.209,0.005,0.322,0.032,0.431,0.055c1.055,0.225,1.573,0.925,1.573,2.009v3.782h-4.817
				h-7.974v-20.97c0-2.201-0.433-3.823-1.298-4.831c-0.911-1.008-2.23-1.511-3.953-1.511c-1.11,0-2.183,0.286-3.173,0.868
				c-0.993,0.536-1.905,1.316-2.773,2.295v17.799c0.807,0.124,1.413,0.256,1.873,0.309c0.493,0.099,0.777,0.166,0.983,0.195
				c0.165,0.005,0.275,0.032,0.383,0.053c1.08,0.225,1.623,0.922,1.623,2.009v3.782h-4.86h-7.926h-4.83v-3.782
				c-0.004-1.081,0.539-1.783,1.574-2.009c0.111-0.02,0.239-0.048,0.426-0.053c0.165-0.029,0.495-0.096,0.95-0.195
				c0.455-0.053,1.11-0.183,1.879-0.309v-20.257c-0.771-0.126-1.428-0.255-1.879-0.333c-0.454-0.075-0.785-0.141-0.95-0.181
				c-0.187-0.037-0.318-0.062-0.426-0.065c-1.035-0.248-1.578-0.901-1.574-2.009v-3.772h4.83h4.841c1.03,0,1.691,0.49,2.021,1.448
				l0.511,2.434c0.593-0.624,1.169-1.23,1.823-1.771c0.609-0.542,1.313-0.996,2.02-1.361c0.707-0.411,1.478-0.722,2.314-0.943
				c0.791-0.225,1.718-0.311,2.7-0.311c2.084,0,3.774,0.53,5.118,1.676c1.309,1.102,2.305,2.6,2.996,4.477
				c0.513-1.109,1.133-2.035,1.907-2.822c0.769-0.786,1.627-1.404,2.536-1.893c0.902-0.49,1.869-0.876,2.917-1.112
				c1.041-0.234,2.087-0.328,3.142-0.328c1.817,0,3.409,0.261,4.83,0.807c1.41,0.566,2.582,1.393,3.536,2.468
				c0.982,1.049,1.726,2.365,2.226,3.912c0.502,1.553,0.754,3.322,0.754,5.311v14.626c0.77,0.121,1.417,0.256,1.871,0.305
				c0.455,0.099,0.785,0.166,0.945,0.199c0.207,0.004,0.321,0.029,0.429,0.05C282.995,261.449,283.526,262.147,283.526,263.232z"/>
			<path style="fill:#FF7040;" d="M320,250.281c0,2.456-0.335,4.741-0.99,6.858c-0.647,2.07-1.621,3.903-2.848,5.453
				c-1.224,1.548-2.703,2.749-4.441,3.598c-1.741,0.88-3.676,1.3-5.861,1.3c-1.829,0-3.418-0.291-4.715-0.823
				c-1.3-0.579-2.44-1.372-3.47-2.383v7.147c0.812,0.126,1.42,0.255,1.893,0.307c0.476,0.1,0.762,0.166,0.968,0.207
				c0.165,0.024,0.286,0.024,0.384,0.037c1.081,0.234,1.621,0.926,1.621,2.014v3.778h-4.866h-7.903h-4.854v-3.778
				c0-1.081,0.537-1.779,1.593-2.014c0.093-0.013,0.246-0.013,0.411-0.037c0.163-0.041,0.49-0.106,0.945-0.207
				c0.456-0.054,1.112-0.182,1.904-0.307v-31.021c-0.797-0.124-1.448-0.255-1.904-0.336c-0.455-0.071-0.782-0.138-0.945-0.177
				c-0.165-0.037-0.323-0.063-0.411-0.068c-1.056-0.244-1.593-0.897-1.593-2.009v-3.772h4.854h4.818c0.514,0,0.963,0.11,1.324,0.342
				c0.382,0.233,0.615,0.62,0.696,1.11l0.665,3.062c1.293-1.523,2.816-2.752,4.549-3.729c1.737-0.929,3.752-1.396,6.029-1.396
				c1.791,0,3.453,0.367,4.933,1.116c1.482,0.758,2.767,1.836,3.857,3.269c1.049,1.432,1.895,3.189,2.495,5.268
				C319.697,245.176,320,247.595,320,250.281z M311.852,250.281c0-1.919-0.185-3.567-0.492-4.924
				c-0.289-1.311-0.738-2.415-1.311-3.263c-0.588-0.803-1.279-1.435-2.115-1.8c-0.828-0.409-1.758-0.592-2.812-0.592
				c-1.621,0-3.042,0.366-4.201,1.051c-1.149,0.684-2.249,1.664-3.249,2.93v14.776c0.889,1.135,1.893,1.919,2.915,2.346
				c1.066,0.427,2.226,0.641,3.439,0.641c1.184,0,2.283-0.222,3.249-0.664c0.965-0.438,1.802-1.123,2.459-2.064
				c0.66-0.905,1.178-2.073,1.562-3.482C311.635,253.851,311.852,252.17,311.852,250.281z"/>
		</g>
	</g>
</g>
<g id="Layer_1">
</g>
</svg>
