<?xml version="1.0" encoding="iso-8859-1"?>
<!-- Generator: Adobe Illustrator 19.1.0, SVG Export Plug-In . SVG Version: 6.00 Build 0)  -->
<!DOCTYPE svg PUBLIC "-//W3C//DTD SVG 1.1//EN" "http://www.w3.org/Graphics/SVG/1.1/DTD/svg11.dtd">
<svg version="1.1" xmlns="http://www.w3.org/2000/svg" xmlns:xlink="http://www.w3.org/1999/xlink" x="0px" y="0px"
	 viewBox="0 0 400 300" style="enable-background:new 0 0 400 300;" xml:space="preserve">
<g id="mlh">
	<g id="Layer_1_1_">
		<g style="display:none;">
			<path style="display:inline;" d="M144.509,83.429c2.241,0.996,4.17,2.303,5.727,3.859c1.618,1.618,2.925,3.548,3.859,5.727
				c0.996,2.241,1.494,4.606,1.494,7.096v87.765c0,0.809-0.311,1.556-0.871,2.116c-0.56,0.56-1.245,0.871-2.116,0.871h-21.661
				c-0.809,0-1.494-0.311-1.992-0.871c-0.498-0.56-0.747-1.245-0.747-2.116v-79.424h-17.429v79.486c0,0.809-0.249,1.556-0.747,2.116
				c-0.498,0.56-1.183,0.871-1.992,0.871H88.426c-0.809,0-1.556-0.311-2.116-0.871c-0.56-0.56-0.871-1.245-0.871-2.116v-79.486
				H68.01v79.486c0,1.992-0.996,2.988-2.988,2.988H43.61c-1.992,0-2.988-0.996-2.988-2.988V84.923c0-1.992,0.996-2.925,2.988-2.925
				h93.865C139.903,81.998,142.268,82.496,144.509,83.429z"/>
			<path style="display:inline;" d="M250.387,164.472c0.809,0,1.494,0.311,1.992,0.871c0.498,0.56,0.747,1.245,0.747,2.116V188
				c0,0.809-0.249,1.556-0.747,2.116c-0.498,0.56-1.183,0.871-1.992,0.871h-67.224c-1.992,0-2.988-0.996-2.988-2.988V84.923
				c0-1.992,0.996-2.925,2.988-2.925h21.474c1.992,0,2.988,0.996,2.988,2.925v76.748c0,0.809,0.311,1.494,0.871,1.992
				c0.56,0.498,1.245,0.747,2.116,0.747h39.774V164.472z"/>
			<path style="display:inline;" d="M356.514,81.998c0.809,0,1.556,0.311,2.116,0.871s0.871,1.245,0.871,2.116v102.953
				c0,0.809-0.311,1.556-0.871,2.116s-1.245,0.871-2.116,0.871h-21.661c-0.809,0-1.556-0.311-2.116-0.871
				c-0.56-0.56-0.871-1.245-0.871-2.116v-35.977c0-0.809-0.249-1.494-0.747-2.054c-0.498-0.498-1.183-0.747-1.992-0.747h-30.313
				c-0.809,0-1.556,0.249-2.116,0.747c-0.56,0.498-0.871,1.183-0.871,2.054v35.977c0,1.992-0.996,2.988-2.988,2.988h-21.474
				c-1.992,0-2.988-0.996-2.988-2.988V84.923c0-1.992,0.996-2.925,2.988-2.925h21.474c1.992,0,2.988,0.996,2.988,2.925v34.857
				c0,1.992,0.996,2.988,2.988,2.988h30.313c0.809,0,1.494-0.311,1.992-0.871s0.747-1.245,0.747-2.116V84.923
				c0-0.809,0.311-1.556,0.871-2.116c0.56-0.56,1.245-0.871,2.116-0.871h21.661V81.998z"/>
		</g>
		<g id="Major_League_Hacking">
			<g>
				<path style="fill:#FDEE00;" d="M356.514,81.686c0.809,0,1.556,0.311,2.116,0.871s0.871,1.245,0.871,2.116v103.015
					c0,0.809-0.311,1.556-0.871,2.116s-1.245,0.871-2.116,0.871h-21.661c-0.809,0-1.556-0.311-2.116-0.871
					c-0.56-0.56-0.871-1.245-0.871-2.116v-35.977c0-0.809-0.249-1.494-0.747-1.992c-0.498-0.498-1.183-0.747-1.992-0.747h-30.313
					c-0.809,0-1.556,0.249-2.116,0.747c-0.56,0.498-0.871,1.183-0.871,1.992v35.977c0,1.992-0.996,2.988-2.988,2.988h-21.474
					c-1.992,0-2.988-0.996-2.988-2.988V84.612c0-1.992,0.996-2.988,2.988-2.988h21.474c1.992,0,2.988,0.996,2.988,2.988v34.857
					c0,1.992,0.996,2.988,2.988,2.988h30.313c0.809,0,1.494-0.311,1.992-0.871s0.747-1.245,0.747-2.116V84.612
					c0-0.809,0.311-1.556,0.871-2.116c0.56-0.56,1.245-0.871,2.116-0.871h21.661V81.686z"/>
				<path style="fill:#ECC700;" d="M295.826,151.712v35.915c0,1.992-0.996,2.988-2.988,2.988h-21.474
					c-1.992,0-2.988-0.996-2.988-2.988V84.612c0-1.992,0.996-2.988,2.988-2.988h21.474c1.992,0,2.988,0.996,2.988,2.988v34.857
					C295.826,121.461,295.826,150.84,295.826,151.712z"/>
				<path style="fill:#ECC700;" d="M356.514,81.686c0.809,0,1.556,0.311,2.116,0.871s0.871,1.245,0.871,2.116v103.015
					c0,0.809-0.311,1.556-0.871,2.116s-1.245,0.871-2.116,0.871h-21.661c-0.809,0-1.556-0.311-2.116-0.871
					c-0.56-0.56-0.871-1.245-0.871-2.116v-35.915c0-0.809,0-31.371,0-32.181V84.612c0-0.809,0.311-1.556,0.871-2.116
					c0.56-0.56,1.245-0.871,2.116-0.871h21.661V81.686z"/>
				<path style="fill:#265A8F;" d="M250.387,163.974c0.809,0,1.494,0.311,1.992,0.871c0.498,0.56,0.747,1.245,0.747,2.116v20.541
					c0,0.809-0.249,1.556-0.747,2.116c-0.498,0.56-1.183,0.871-1.992,0.871h-67.224c-1.992,0-2.988-0.996-2.988-2.988V84.425
					c0-1.992,0.996-2.988,2.988-2.988h21.474c1.992,0,2.988,0.996,2.988,2.988v76.748c0,0.809,0.311,1.494,0.871,1.992
					s1.245,0.747,2.116,0.747h39.774V163.974z"/>
				<path style="fill:#162F51;" d="M207.438,190.428h-24.275c-1.992,0-2.988-0.996-2.988-2.988V84.425
					c0-1.992,0.996-2.988,2.988-2.988h21.474c1.992,0,2.988,0.996,2.988,2.988v76.748
					C207.625,161.982,207.438,190.428,207.438,190.428z"/>
				<path style="fill:#C53C02;" d="M144.509,83.118c2.241,0.996,4.17,2.303,5.727,3.859c1.618,1.618,2.925,3.548,3.859,5.727
					c0.996,2.241,1.494,4.606,1.494,7.096v87.765c0,0.809-0.311,1.556-0.871,2.116s-1.245,0.871-2.116,0.871h-21.661
					c-0.809,0-1.494-0.311-1.992-0.871c-0.498-0.56-0.747-1.245-0.747-2.116V108.14h-17.429v79.549c0,0.809-0.249,1.556-0.747,2.116
					c-0.498,0.56-1.183,0.871-1.992,0.871H88.426c-0.809,0-1.556-0.311-2.116-0.871c-0.56-0.56-0.871-1.245-0.871-2.116V108.14
					H68.01v79.549c0,1.992-0.996,2.988-2.988,2.988H43.61c-1.992,0-2.988-0.996-2.988-2.988V84.612c0-1.992,0.996-2.988,2.988-2.988
					h93.865C139.903,81.686,142.268,82.184,144.509,83.118z"/>
				<path style="fill:#751B00;" d="M144.509,83.118c2.241,0.996,4.17,2.303,5.727,3.859c1.618,1.618,2.925,3.548,3.859,5.727
					c0.996,2.241,1.494,4.606,1.494,7.096v8.092l-27.388,0.187h-17.429H85.439H68.01l-27.388-0.187v-23.28
					c0-1.992,0.996-2.988,2.988-2.988h93.865C139.903,81.686,142.268,82.184,144.509,83.118z"/>
				<g>
					<path style="fill:#353535;" d="M56.121,201.756c0.373,0.124,0.622,0.373,0.871,0.622c0.249,0.249,0.436,0.56,0.622,0.871
						c0.124,0.373,0.249,0.685,0.249,1.12v13.632c0,0.124-0.062,0.249-0.124,0.311c-0.062,0.062-0.187,0.124-0.311,0.124h-3.361
						c-0.124,0-0.249-0.062-0.311-0.124c-0.062-0.062-0.124-0.187-0.124-0.311v-12.324h-2.739v12.324
						c0,0.124-0.062,0.249-0.124,0.311c-0.062,0.062-0.187,0.124-0.311,0.124h-3.05c-0.124,0-0.249-0.062-0.311-0.124
						c-0.062-0.062-0.124-0.187-0.124-0.311v-12.324h-2.739v12.324c0,0.311-0.124,0.436-0.436,0.436h-3.361
						c-0.311,0-0.436-0.124-0.436-0.436v-15.997c0-0.311,0.124-0.436,0.436-0.436h14.565
						C55.374,201.507,55.748,201.57,56.121,201.756z"/>
					<path style="fill:#353535;" d="M72.99,201.507c0.373,0,0.747,0.062,1.12,0.249c0.373,0.124,0.622,0.373,0.871,0.622
						s0.436,0.56,0.622,0.871c0.124,0.373,0.249,0.685,0.249,1.12v13.632c0,0.124-0.062,0.249-0.124,0.311
						c-0.062,0.062-0.187,0.124-0.311,0.124h-3.361c-0.124,0-0.249-0.062-0.311-0.124c-0.062-0.062-0.124-0.187-0.124-0.311v-4.357
						c0-0.124-0.062-0.249-0.124-0.311c-0.062-0.062-0.187-0.124-0.311-0.124h-4.793c-0.124,0-0.249,0.062-0.311,0.124
						c-0.062,0.062-0.124,0.187-0.124,0.311v4.357c0,0.311-0.124,0.436-0.436,0.436h-3.361c-0.311,0-0.436-0.124-0.436-0.436
						v-13.632c0-0.373,0.062-0.747,0.187-1.12c0.124-0.373,0.373-0.622,0.622-0.871c0.249-0.249,0.56-0.436,0.934-0.622
						c0.373-0.124,0.685-0.249,1.12-0.249H72.99z M71.558,209.599v-4.233h-5.664v4.233H71.558z"/>
					<path style="fill:#353535;" d="M91.041,201.632c0.062,0.062,0.124,0.187,0.124,0.311v13.632c0,0.373-0.062,0.747-0.249,1.12
						c-0.124,0.373-0.373,0.622-0.622,0.934c-0.249,0.249-0.56,0.436-0.871,0.622c-0.373,0.124-0.685,0.249-1.12,0.249h-7.22
						c-0.373,0-0.747-0.062-1.12-0.249c-0.373-0.124-0.622-0.373-0.934-0.622c-0.249-0.249-0.436-0.56-0.622-0.934
						c-0.124-0.373-0.249-0.685-0.249-1.12v-5.166c0-0.311,0.124-0.436,0.436-0.436h3.361c0.311,0,0.436,0.124,0.436,0.436v3.486
						c0,0.124,0.062,0.249,0.124,0.311c0.062,0.062,0.187,0.124,0.311,0.124h3.486c0.124,0,0.249-0.062,0.311-0.124
						s0.124-0.187,0.124-0.311v-11.951c0-0.124,0.062-0.249,0.124-0.311c0.062-0.062,0.187-0.124,0.311-0.124h3.361
						C90.854,201.507,90.978,201.57,91.041,201.632z"/>
					<path style="fill:#353535;" d="M106.353,201.507c0.373,0,0.747,0.062,1.12,0.249c0.373,0.124,0.622,0.373,0.871,0.622
						c0.249,0.249,0.436,0.56,0.622,0.871c0.124,0.373,0.249,0.685,0.249,1.12v11.266c0,0.373-0.062,0.747-0.249,1.12
						c-0.124,0.373-0.373,0.622-0.622,0.934c-0.249,0.249-0.56,0.436-0.871,0.622c-0.373,0.124-0.685,0.249-1.12,0.249h-8.59
						c-0.373,0-0.747-0.062-1.12-0.249c-0.373-0.124-0.622-0.373-0.934-0.622c-0.249-0.249-0.436-0.56-0.622-0.934
						c-0.124-0.373-0.187-0.685-0.187-1.12v-11.266c0-0.373,0.062-0.747,0.187-1.12s0.373-0.622,0.622-0.871s0.56-0.436,0.934-0.622
						c0.373-0.124,0.685-0.249,1.12-0.249H106.353z M104.921,205.616h-5.664v8.714h5.664V205.616z"/>
					<path style="fill:#353535;" d="M127.454,218.065c0.062,0.124,0.062,0.187,0,0.249s-0.124,0.124-0.249,0.124h-3.797
						c-0.124,0-0.249-0.062-0.373-0.124c-0.124-0.062-0.249-0.187-0.311-0.249l-2.552-4.606c-0.062-0.062-0.062-0.124-0.187-0.124
						h-2.863c-0.062,0-0.124,0.062-0.124,0.124v4.482c0,0.311-0.124,0.436-0.436,0.436H113.2c-0.311,0-0.436-0.124-0.436-0.436
						v-15.997c0-0.311,0.124-0.436,0.436-0.436h10.955c0.373,0,0.747,0.062,1.12,0.249c0.373,0.124,0.622,0.373,0.871,0.622
						c0.249,0.249,0.436,0.56,0.622,0.871c0.124,0.373,0.249,0.685,0.249,1.12v6.349c0,0.622-0.187,1.183-0.56,1.681
						c-0.373,0.498-0.809,0.809-1.369,0.996h-0.062c-0.124,0.062-0.124,0.062-0.062,0.124v0.062L127.454,218.065z M122.661,205.491
						h-5.851v4.108h5.851V205.491z"/>
					<path style="fill:#353535;" d="M150.298,214.33c0.124,0,0.249,0.062,0.311,0.124c0.062,0.062,0.124,0.187,0.124,0.311v3.174
						c0,0.124-0.062,0.249-0.124,0.311c-0.062,0.062-0.187,0.124-0.311,0.124H139.84c-0.311,0-0.436-0.124-0.436-0.436v-15.997
						c0-0.311,0.124-0.436,0.436-0.436h3.361c0.311,0,0.436,0.124,0.436,0.436v11.951c0,0.124,0.062,0.249,0.124,0.311
						c0.062,0.062,0.187,0.124,0.311,0.124H150.298z"/>
					<path style="fill:#353535;" d="M157.269,205.553v2.614c0,0.062,0.062,0.124,0.124,0.124h6.909c0.124,0,0.249,0.062,0.311,0.124
						c0.062,0.062,0.124,0.187,0.124,0.311v2.428c0,0.311-0.124,0.436-0.436,0.436h-6.909c-0.062,0-0.124,0.062-0.124,0.124v2.614
						c0,0.062,0.062,0.124,0.124,0.124h8.092c0.124,0,0.249,0.062,0.311,0.124c0.062,0.062,0.124,0.187,0.124,0.311v3.05
						c0,0.124-0.062,0.249-0.124,0.311c-0.062,0.062-0.187,0.124-0.311,0.124h-9.648c-0.373,0-0.747-0.062-1.12-0.249
						c-0.373-0.124-0.622-0.373-0.934-0.622c-0.249-0.249-0.436-0.56-0.622-0.934c-0.124-0.373-0.187-0.685-0.187-1.12v-11.266
						c0-0.373,0.062-0.747,0.187-1.12c0.124-0.373,0.373-0.622,0.622-0.871s0.56-0.436,0.934-0.622
						c0.373-0.124,0.685-0.249,1.12-0.249h9.648c0.124,0,0.249,0.062,0.311,0.124c0.062,0.062,0.124,0.187,0.124,0.311v3.05
						c0,0.124-0.062,0.249-0.124,0.311c-0.062,0.062-0.187,0.124-0.311,0.124h-8.092
						C157.331,205.491,157.269,205.491,157.269,205.553z"/>
					<path style="fill:#353535;" d="M181.171,201.507c0.373,0,0.747,0.062,1.12,0.249c0.373,0.124,0.622,0.373,0.871,0.622
						s0.436,0.56,0.622,0.871c0.124,0.373,0.249,0.685,0.249,1.12v13.632c0,0.124-0.062,0.249-0.124,0.311
						c-0.062,0.062-0.187,0.124-0.311,0.124h-3.361c-0.124,0-0.249-0.062-0.311-0.124c-0.062-0.062-0.124-0.187-0.124-0.311v-4.357
						c0-0.124-0.062-0.249-0.124-0.311c-0.062-0.062-0.187-0.124-0.311-0.124h-4.917c-0.124,0-0.249,0.062-0.311,0.124
						c-0.062,0.062-0.124,0.187-0.124,0.311v4.357c0,0.311-0.124,0.436-0.436,0.436h-3.361c-0.311,0-0.436-0.124-0.436-0.436
						v-13.632c0-0.373,0.062-0.747,0.187-1.12s0.373-0.622,0.622-0.871s0.56-0.436,0.934-0.622c0.373-0.124,0.685-0.249,1.12-0.249
						H181.171z M179.677,209.599v-4.233h-5.664v4.233H179.677z"/>
					<path style="fill:#353535;" d="M201.836,209.35c0.062,0.062,0.124,0.187,0.124,0.311v5.975c0,0.373-0.062,0.747-0.249,1.12
						c-0.124,0.373-0.373,0.622-0.622,0.934c-0.249,0.249-0.56,0.436-0.871,0.622c-0.373,0.124-0.685,0.249-1.12,0.249h-8.528
						c-0.373,0-0.747-0.062-1.12-0.249c-0.373-0.124-0.622-0.373-0.934-0.622c-0.249-0.249-0.436-0.56-0.622-0.934
						c-0.124-0.373-0.249-0.685-0.249-1.12v-11.266c0-0.373,0.062-0.747,0.249-1.12c0.124-0.373,0.373-0.622,0.622-0.871
						s0.56-0.436,0.934-0.622c0.373-0.124,0.685-0.249,1.12-0.249h9.959c0.124,0,0.249,0.062,0.311,0.124
						c0.062,0.062,0.124,0.187,0.124,0.311v3.174c0,0.124-0.062,0.249-0.124,0.311c-0.062,0.062-0.187,0.124-0.311,0.124h-8.092
						c-0.124,0-0.249,0.062-0.311,0.124c-0.062,0.062-0.124,0.187-0.124,0.311v7.843c0,0.124,0.062,0.249,0.124,0.311
						c0.062,0.062,0.187,0.124,0.311,0.124h4.793c0.124,0,0.249-0.062,0.311-0.124c0.062-0.062,0.124-0.187,0.124-0.311v-4.233
						c0-0.124,0.062-0.249,0.124-0.311c0.062-0.062,0.187-0.124,0.311-0.124h3.361C201.649,209.226,201.712,209.226,201.836,209.35z
						"/>
					<path style="fill:#353535;" d="M219.7,201.632c0.062,0.062,0.124,0.187,0.124,0.311v13.632c0,0.373-0.062,0.747-0.249,1.12
						c-0.124,0.373-0.373,0.622-0.622,0.934c-0.249,0.249-0.56,0.436-0.871,0.622c-0.373,0.124-0.685,0.249-1.12,0.249h-8.59
						c-0.373,0-0.747-0.062-1.12-0.249c-0.373-0.124-0.622-0.373-0.934-0.622c-0.249-0.249-0.436-0.56-0.622-0.934
						c-0.124-0.373-0.187-0.685-0.187-1.12v-13.632c0-0.311,0.124-0.436,0.436-0.436h3.361c0.311,0,0.436,0.124,0.436,0.436v11.951
						c0,0.124,0.062,0.249,0.124,0.311c0.062,0.062,0.187,0.124,0.311,0.124h4.793c0.124,0,0.249-0.062,0.311-0.124
						c0.062-0.062,0.124-0.187,0.124-0.311v-11.951c0-0.124,0.062-0.249,0.124-0.311c0.062-0.062,0.187-0.124,0.311-0.124h3.361
						C219.451,201.507,219.576,201.57,219.7,201.632z"/>
					<path style="fill:#353535;" d="M227.792,205.553v2.614c0,0.062,0.062,0.124,0.124,0.124h6.909c0.124,0,0.249,0.062,0.311,0.124
						c0.062,0.062,0.124,0.187,0.124,0.311v2.428c0,0.311-0.124,0.436-0.436,0.436h-6.909c-0.062,0-0.124,0.062-0.124,0.124v2.614
						c0,0.062,0.062,0.124,0.124,0.124h8.092c0.124,0,0.249,0.062,0.311,0.124c0.062,0.062,0.124,0.187,0.124,0.311v3.05
						c0,0.124-0.062,0.249-0.124,0.311c-0.062,0.062-0.187,0.124-0.311,0.124h-9.648c-0.373,0-0.747-0.062-1.12-0.249
						c-0.373-0.124-0.622-0.373-0.934-0.622c-0.249-0.249-0.436-0.56-0.622-0.934c-0.124-0.373-0.187-0.685-0.187-1.12v-11.266
						c0-0.373,0.062-0.747,0.187-1.12c0.124-0.373,0.373-0.622,0.622-0.871s0.56-0.436,0.934-0.622
						c0.373-0.124,0.685-0.249,1.12-0.249h9.648c0.124,0,0.249,0.062,0.311,0.124c0.062,0.062,0.124,0.187,0.124,0.311v3.05
						c0,0.124-0.062,0.249-0.124,0.311c-0.062,0.062-0.187,0.124-0.311,0.124h-8.092
						C227.854,205.491,227.792,205.491,227.792,205.553z"/>
					<path style="fill:#353535;" d="M262.338,201.507c0.124,0,0.249,0.062,0.311,0.124c0.062,0.062,0.124,0.187,0.124,0.311v15.997
						c0,0.124-0.062,0.249-0.124,0.311c-0.062,0.062-0.187,0.124-0.311,0.124h-3.361c-0.124,0-0.249-0.062-0.311-0.124
						c-0.062-0.062-0.124-0.187-0.124-0.311v-5.602c0-0.124-0.062-0.249-0.125-0.311c-0.062-0.062-0.187-0.124-0.311-0.124h-4.793
						c-0.124,0-0.249,0.062-0.311,0.124c-0.062,0.062-0.125,0.187-0.125,0.311v5.602c0,0.311-0.124,0.436-0.436,0.436h-3.361
						c-0.311,0-0.436-0.124-0.436-0.436v-15.997c0-0.311,0.125-0.436,0.436-0.436h3.361c0.311,0,0.436,0.124,0.436,0.436v5.415
						c0,0.311,0.125,0.436,0.436,0.436h4.793c0.125,0,0.249-0.062,0.311-0.124s0.125-0.187,0.125-0.311v-5.415
						c0-0.124,0.062-0.249,0.124-0.311c0.062-0.062,0.187-0.124,0.311-0.124H262.338z"/>
					<path style="fill:#353535;" d="M277.961,201.507c0.373,0,0.747,0.062,1.12,0.249c0.373,0.124,0.622,0.373,0.871,0.622
						c0.249,0.249,0.436,0.56,0.622,0.871c0.125,0.373,0.249,0.685,0.249,1.12v13.632c0,0.124-0.062,0.249-0.125,0.311
						c-0.062,0.062-0.187,0.124-0.311,0.124h-3.361c-0.124,0-0.249-0.062-0.311-0.124c-0.062-0.062-0.125-0.187-0.125-0.311v-4.357
						c0-0.124-0.062-0.249-0.124-0.311c-0.062-0.062-0.187-0.124-0.311-0.124h-4.793c-0.125,0-0.249,0.062-0.311,0.124
						c-0.062,0.062-0.124,0.187-0.124,0.311v4.357c0,0.311-0.125,0.436-0.436,0.436h-3.361c-0.311,0-0.436-0.124-0.436-0.436
						v-13.632c0-0.373,0.062-0.747,0.187-1.12c0.125-0.373,0.373-0.622,0.622-0.871c0.249-0.249,0.56-0.436,0.934-0.622
						c0.373-0.124,0.685-0.249,1.12-0.249H277.961z M276.53,209.599v-4.233h-5.664v4.233H276.53z"/>
					<path style="fill:#353535;" d="M288.917,205.74c-0.062,0.062-0.125,0.187-0.125,0.311v7.843c0,0.124,0.062,0.249,0.125,0.311
						c0.062,0.062,0.187,0.124,0.311,0.124h7.781c0.125,0,0.249,0.062,0.311,0.124c0.062,0.062,0.124,0.187,0.124,0.311v3.174
						c0,0.124-0.062,0.249-0.124,0.311c-0.062,0.062-0.187,0.124-0.311,0.124h-5.042h-4.17h-0.436c-0.373,0-0.747-0.062-1.12-0.249
						c-0.373-0.124-0.622-0.373-0.934-0.622c-0.249-0.249-0.436-0.56-0.622-0.934c-0.124-0.373-0.187-0.685-0.187-1.12v-0.436
						v-1.743v-5.602v-1.556v-1.867c0-0.373,0.062-0.747,0.187-1.12c0.125-0.373,0.373-0.622,0.622-0.871
						c0.249-0.249,0.56-0.436,0.934-0.622c0.373-0.124,0.685-0.249,1.12-0.249h0.436h9.212c0.124,0,0.249,0.062,0.311,0.124
						c0.062,0.062,0.124,0.187,0.124,0.311v3.174c0,0.124-0.062,0.249-0.124,0.311c-0.062,0.062-0.187,0.124-0.311,0.124h-7.781
						C289.165,205.616,289.041,205.678,288.917,205.74z"/>
					<path style="fill:#353535;" d="M310.951,208.666c-0.062,0.062-0.062,0.124,0,0.187l5.664,9.212
						c0.062,0.124,0.062,0.187,0,0.249c-0.062,0.062-0.124,0.124-0.249,0.124h-3.984c-0.124,0-0.249-0.062-0.373-0.124
						c-0.124-0.062-0.249-0.187-0.311-0.249l-3.672-6.598c-0.062-0.062-0.062-0.062-0.125,0l-1.992,2.179
						c-0.062,0.062-0.125,0.187-0.187,0.373c-0.062,0.124-0.062,0.311-0.062,0.436v3.548c0,0.311-0.124,0.436-0.436,0.436h-3.361
						c-0.311,0-0.436-0.124-0.436-0.436v-15.997c0-0.311,0.124-0.436,0.436-0.436h3.361c0.311,0,0.436,0.124,0.436,0.436v7.158
						l6.224-7.283c0.062-0.124,0.187-0.187,0.311-0.249c0.124-0.062,0.311-0.124,0.436-0.124h3.984c0.125,0,0.187,0.062,0.249,0.124
						c0,0.062,0,0.124-0.062,0.249L310.951,208.666z"/>
					<path style="fill:#353535;" d="M323.96,218.002c0,0.311-0.124,0.436-0.436,0.436h-3.361c-0.311,0-0.436-0.124-0.436-0.436
						v-15.997c0-0.311,0.124-0.436,0.436-0.436h3.361c0.311,0,0.436,0.124,0.436,0.436V218.002z"/>
					<path style="fill:#353535;" d="M340.268,201.756c0.373,0.124,0.622,0.373,0.871,0.622c0.249,0.249,0.436,0.56,0.622,0.871
						c0.125,0.373,0.249,0.685,0.249,1.12v13.632c0,0.124-0.062,0.249-0.125,0.311c-0.062,0.062-0.187,0.124-0.311,0.124h-3.423
						c-0.125,0-0.249-0.062-0.311-0.124c-0.062-0.062-0.124-0.187-0.124-0.311v-11.889c0-0.124-0.062-0.249-0.125-0.311
						c-0.062-0.062-0.187-0.124-0.311-0.124h-4.793c-0.124,0-0.249,0.062-0.311,0.124c-0.062,0.062-0.124,0.187-0.124,0.311v11.889
						c0,0.311-0.125,0.436-0.436,0.436h-3.361c-0.311,0-0.436-0.124-0.436-0.436v-15.997c0-0.311,0.125-0.436,0.436-0.436h10.955
						C339.521,201.507,339.895,201.57,340.268,201.756z"/>
					<path style="fill:#353535;" d="M359.875,209.35c0.062,0.062,0.125,0.187,0.125,0.311v5.975c0,0.373-0.062,0.747-0.249,1.12
						c-0.125,0.373-0.373,0.622-0.622,0.934c-0.249,0.249-0.56,0.436-0.871,0.622c-0.373,0.124-0.685,0.249-1.12,0.249h-8.59
						c-0.373,0-0.747-0.062-1.12-0.249c-0.373-0.124-0.622-0.373-0.934-0.622c-0.249-0.249-0.436-0.56-0.622-0.934
						c-0.125-0.373-0.187-0.685-0.187-1.12v-11.266c0-0.373,0.062-0.747,0.187-1.12s0.373-0.622,0.622-0.871
						c0.249-0.249,0.56-0.436,0.934-0.622c0.373-0.124,0.685-0.249,1.12-0.249h9.959c0.125,0,0.249,0.062,0.311,0.124
						c0.062,0.062,0.125,0.187,0.125,0.311v3.174c0,0.124-0.062,0.249-0.125,0.311c-0.062,0.062-0.187,0.124-0.311,0.124h-8.092
						c-0.125,0-0.249,0.062-0.311,0.124s-0.125,0.187-0.125,0.311v7.843c0,0.124,0.062,0.249,0.125,0.311
						c0.062,0.062,0.187,0.124,0.311,0.124h4.793c0.124,0,0.249-0.062,0.311-0.124s0.125-0.187,0.125-0.311v-4.233
						c0-0.124,0.062-0.249,0.124-0.311c0.062-0.062,0.187-0.124,0.311-0.124h3.361C359.626,209.226,359.751,209.226,359.875,209.35z
						"/>
				</g>
			</g>
		</g>
	</g>
</g>
<g id="Layer_1">
</g>
</svg>
