<?xml version="1.0" encoding="iso-8859-1"?>
<!-- Generator: Adobe Illustrator 19.1.0, SVG Export Plug-In . SVG Version: 6.00 Build 0)  -->
<!DOCTYPE svg PUBLIC "-//W3C//DTD SVG 1.1//EN" "http://www.w3.org/Graphics/SVG/1.1/DTD/svg11.dtd">
<svg version="1.1" xmlns="http://www.w3.org/2000/svg" xmlns:xlink="http://www.w3.org/1999/xlink" x="0px" y="0px"
	 viewBox="0 0 400 300" style="enable-background:new 0 0 400 300;" xml:space="preserve">
<g id="startupshell">
	<g>
		<g>
			<g>
				<polygon style="fill:#250E0B;" points="56.056,154.136 94.201,101.138 118.674,149.916 				"/>
			</g>
			<g>
				<polygon style="fill:#66130C;" points="119.771,165.107 56.056,154.136 118.674,149.916 				"/>
			</g>
			<polyline style="fill:#33120E;" points="151.53,184.348 119.771,165.107 118.674,149.916 			"/>
			<g>
				<polygon style="fill:#8D181B;" points="151.53,184.348 110.011,228.681 119.771,165.107 				"/>
			</g>
			<g>
				<polygon style="fill:#700F12;" points="166.777,208.653 110.011,228.681 151.53,184.348 				"/>
			</g>
			<g>
				<polygon style="fill:#3C160B;" points="166.777,208.653 151.53,184.348 196.765,186.148 				"/>
			</g>
			<g>
				<polygon style="fill:#871719;" points="198.565,230.931 166.777,208.653 196.765,186.148 				"/>
			</g>
			<g>
				<polygon style="fill:#49140F;" points="259.778,230.931 198.565,230.931 196.765,186.148 				"/>
			</g>
			<g>
				<polygon style="fill:#250D0B;" points="259.778,230.931 196.765,186.148 229.172,168.257 				"/>
			</g>
			<g>
				<polygon style="fill:#7F1917;" points="259.778,230.931 229.172,168.257 255.502,149.916 				"/>
			</g>
			<g>
				<polygon style="fill:#9E1C20;" points="332.467,130.559 303.436,121.736 375,121.736 				"/>
			</g>
			<g>
				<polygon style="fill:#991E1F;" points="37.039,153.127 56.056,154.136 42.183,136.416 				"/>
			</g>
			<g>
				<polygon style="fill:#25130A;" points="229.172,168.257 231.648,121.736 255.502,149.916 				"/>
			</g>
			<g>
				<polygon style="fill:#250D0B;" points="56.048,154.136 37.039,153.127 50.889,170.212 				"/>
			</g>
			<g>
				<polygon style="fill:#53120C;" points="201.042,146.99 231.648,121.736 229.172,168.257 				"/>
			</g>
			<g>
				<polygon style="fill:#831618;" points="196.765,186.148 201.042,146.99 229.172,168.257 				"/>
			</g>
			<g>
				<polygon style="fill:#5D140B;" points="151.53,184.348 201.042,146.99 196.765,186.148 				"/>
			</g>
			<g>
				<polygon style="fill:#991E1F;" points="118.674,149.916 201.042,146.99 151.53,184.348 				"/>
			</g>
			<g>
				<polygon style="fill:#991E1F;" points="94.201,101.138 130.771,106.708 118.674,149.916 				"/>
			</g>
			<g>
				<polygon style="fill:#30170D;" points="130.771,106.708 128.796,141.117 118.674,149.916 				"/>
			</g>
			<g>
				<polygon style="fill:#4A170D;" points="183.501,93.556 201.042,146.99 118.674,149.916 				"/>
			</g>
			<g>
				<polygon style="fill:#741112;" points="183.501,93.556 202.73,92.305 201.042,146.99 				"/>
			</g>
			<g>
				<polygon style="fill:#9E1C20;" points="202.73,92.305 231.648,121.736 201.042,146.99 				"/>
			</g>
			<g>
				<polygon style="fill:#6B0D0E;" points="202.73,92.305 228.272,71.601 231.648,121.736 				"/>
			</g>
			<g>
				<polygon style="fill:#280F0D;" points="228.272,71.601 263.603,77.002 231.648,121.736 				"/>
			</g>
			<g>
				<polygon style="fill:#53120C;" points="263.603,77.002 272.685,104.901 231.648,121.736 				"/>
			</g>
			<g>
				<polygon style="fill:#961B1E;" points="272.685,104.901 255.502,149.916 231.648,121.736 				"/>
			</g>
			<g>
				<polygon style="fill:#AC1E23;" points="272.685,104.901 299.048,156.217 255.502,149.916 				"/>
			</g>
			<g>
				<polygon style="fill:#54130B;" points="303.436,121.736 299.048,156.217 272.685,104.901 				"/>
			</g>
			<g>
				<polygon style="fill:#280F0D;" points="332.467,130.559 299.048,156.217 303.436,121.736 				"/>
			</g>
			<g>
				<polygon style="fill:#3B140E;" points="255.502,149.916 299.048,156.217 259.778,230.931 				"/>
			</g>
			<g>
				<polygon style="fill:#210D0C;" points="299.048,156.217 330.216,175.57 259.778,230.931 				"/>
			</g>
			<g>
				<polygon style="fill:#6B160F;" points="332.467,130.559 330.216,175.57 299.048,156.217 				"/>
			</g>
			<g>
				<polygon style="fill:#B01F24;" points="332.467,130.559 375,121.736 330.216,175.57 				"/>
			</g>
			<g>
				<polygon style="fill:#210D0B;" points="183.501,93.556 128.796,141.117 130.771,106.708 				"/>
			</g>
			<g>
				<polygon style="fill:#A22021;" points="183.501,93.556 130.771,106.708 150.321,69.069 				"/>
			</g>
			<g>
				<polygon style="fill:#33120E;" points="105.259,171.381 114.891,196.895 119.771,165.107 				"/>
			</g>
			<polyline style="fill:#73191B;" points="84.243,180.466 41.203,200.382 56.052,154.125 84.243,180.466 			"/>
			<g>
				<polygon style="fill:#421211;" points="84.243,180.466 56.056,154.136 119.771,165.107 				"/>
			</g>
			<g>
				<polygon style="fill:#73191B;" points="94.201,101.138 56.056,154.136 25,114.472 				"/>
			</g>
		</g>
		<g>
			<path style="fill:#FFFFFF;" d="M61.201,140.115c-4.568,0-6.851,1.646-6.851,4.935c0,1.51,0.502,2.574,1.51,3.193
				c1.006,0.619,3.28,1.229,6.822,1.829c3.542,0.601,6.038,1.423,7.491,2.468c1.451,1.045,2.177,3.048,2.177,6.009
				c0,2.962-0.949,5.13-2.846,6.504c-1.896,1.374-4.684,2.061-8.36,2.061c-2.129,0-4.878-0.271-8.245-0.813l-1.684-0.232
				l0.232-3.078c4.335,0.659,7.665,0.987,9.987,0.987c2.322,0,4.131-0.406,5.429-1.219c1.296-0.813,1.945-2.186,1.945-4.122
				c0-1.935-0.533-3.223-1.597-3.862c-1.065-0.638-3.348-1.228-6.851-1.771c-3.503-0.541-5.971-1.315-7.403-2.322
				c-1.432-1.006-2.148-2.903-2.148-5.69s0.987-4.819,2.962-6.096c1.974-1.277,4.412-1.916,7.316-1.916
				c2.322,0,5.225,0.253,8.709,0.755l1.567,0.232l-0.116,3.077C67.103,140.425,63.755,140.115,61.201,140.115z"/>
			<path style="fill:#FFFFFF;" d="M93.441,140.58h-9.696v14.34c0,3.755,0.27,6.213,0.812,7.374c0.542,1.161,1.819,1.741,3.833,1.741
				l5.342-0.406l0.232,2.961c-2.555,0.386-4.51,0.581-5.865,0.581c-2.942,0-4.984-0.726-6.125-2.177
				c-1.142-1.452-1.713-4.229-1.713-8.332v-16.082h-4.297v-3.077h4.297v-9.115h3.484v9.116h9.696
				C93.441,137.503,93.441,140.58,93.441,140.58z"/>
			<path style="fill:#FFFFFF;" d="M118.988,146.154v15.56c0.153,1.433,1.412,2.285,3.774,2.555l-0.174,2.787
				c-2.981,0-5.167-0.774-6.562-2.322c-3.639,1.588-7.277,2.381-10.916,2.381c-2.594,0-4.568-0.745-5.922-2.235
				c-1.356-1.489-2.032-3.618-2.032-6.387c0-2.767,0.687-4.819,2.061-6.154c1.373-1.336,3.531-2.158,6.473-2.468l9.871-0.987v-2.729
				c0-2.167-0.475-3.725-1.422-4.674c-0.949-0.948-2.216-1.423-3.803-1.423c-2.478,0-5.69,0.232-9.638,0.697l-1.8,0.174
				l-0.174-2.787c4.257-0.813,7.983-1.219,11.177-1.219c3.193,0,5.505,0.755,6.938,2.264
				C118.271,140.696,118.988,143.018,118.988,146.154z M100.756,158.288c0,3.91,1.605,5.864,4.819,5.864
				c1.393,0,2.922-0.164,4.588-0.494c1.664-0.328,2.98-0.668,3.948-1.016l1.452-0.523V151.61l-9.464,0.987
				c-1.897,0.155-3.262,0.697-4.093,1.626C101.172,155.153,100.756,156.508,100.756,158.288z"/>
			<path style="fill:#FFFFFF;" d="M127.365,166.533v-29.031h3.426v4.18c1.432-1.006,3.183-1.974,5.255-2.903
				c2.07-0.929,3.977-1.547,5.719-1.858v3.484c-1.665,0.348-3.406,0.881-5.226,1.597c-1.819,0.717-3.232,1.346-4.238,1.887
				l-1.51,0.871v21.773H127.365z"/>
			<path style="fill:#FFFFFF;" d="M162.585,140.58h-9.696v14.34c0,3.755,0.27,6.213,0.813,7.374
				c0.541,1.161,1.819,1.741,3.833,1.741l5.342-0.406l0.232,2.961c-2.555,0.386-4.51,0.581-5.865,0.581
				c-2.942,0-4.984-0.726-6.125-2.177c-1.142-1.452-1.713-4.229-1.713-8.332v-16.082h-4.296v-3.077h4.296v-9.115h3.484v9.116h9.696
				V140.58z"/>
			<path style="fill:#FFFFFF;" d="M185.768,137.503h3.426v29.031h-3.426v-2.148c-2.981,1.819-5.961,2.729-8.941,2.729
				c-3.948,0-6.552-1.006-7.809-3.019c-1.258-2.013-1.887-5.826-1.887-11.438v-15.154h3.426v15.096c0,4.49,0.415,7.509,1.248,9.058
				c0.832,1.549,2.642,2.322,5.429,2.322c1.354,0,2.748-0.203,4.18-0.609c1.432-0.407,2.516-0.822,3.251-1.249l1.104-0.58
				L185.768,137.503L185.768,137.503z"/>
			<path style="fill:#FFFFFF;" d="M196.288,179.597v-42.094h3.426v2.206c3.02-1.858,6.203-2.787,9.551-2.787
				c3.348,0,5.845,1.181,7.491,3.542c1.645,2.362,2.468,6.203,2.468,11.524c0,5.323-0.968,9.174-2.904,11.554
				s-5.148,3.571-9.637,3.571c-2.401,0-4.723-0.253-6.967-0.755v13.238L196.288,179.597L196.288,179.597z M208.539,140.057
				c-1.277,0-2.652,0.213-4.122,0.639c-1.472,0.426-2.613,0.871-3.426,1.335l-1.278,0.639v20.67
				c2.632,0.464,4.915,0.696,6.851,0.696c3.328,0,5.67-0.938,7.025-2.816c1.354-1.877,2.032-4.973,2.032-9.29
				c0-4.315-0.591-7.373-1.771-9.173C212.671,140.957,210.899,140.057,208.539,140.057z"/>
			<path style="fill:#FFFFFF;" d="M248.194,140.115c-4.568,0-6.851,1.646-6.851,4.935c0,1.51,0.502,2.574,1.51,3.193
				c1.006,0.619,3.28,1.229,6.822,1.829c3.542,0.601,6.038,1.423,7.49,2.468c1.452,1.045,2.177,3.048,2.177,6.009
				c0,2.962-0.949,5.13-2.845,6.504c-1.897,1.374-4.684,2.061-8.361,2.061c-2.129,0-4.878-0.271-8.245-0.813l-1.684-0.232
				l0.232-3.078c4.335,0.659,7.665,0.987,9.987,0.987c2.322,0,4.131-0.406,5.429-1.219c1.296-0.813,1.945-2.186,1.945-4.122
				c0-1.935-0.533-3.223-1.597-3.862c-1.065-0.638-3.348-1.228-6.851-1.771c-3.504-0.541-5.972-1.315-7.403-2.322
				c-1.433-1.006-2.149-2.903-2.149-5.69s0.988-4.819,2.962-6.096c1.974-1.277,4.412-1.916,7.316-1.916
				c2.322,0,5.225,0.253,8.709,0.755l1.567,0.232l-0.116,3.077C254.096,140.425,250.749,140.115,248.194,140.115z"/>
			<path style="fill:#FFFFFF;" d="M268.148,166.533h-3.425v-41.92h3.425v14.573c3.251-1.51,6.387-2.264,9.407-2.264
				c3.87,0,6.454,1.026,7.752,3.077c1.296,2.052,1.945,5.806,1.945,11.263v15.27h-3.484v-15.095c0-4.451-0.417-7.461-1.249-9.029
				c-0.832-1.568-2.641-2.351-5.429-2.351c-1.356,0-2.777,0.165-4.267,0.494c-1.491,0.329-2.642,0.668-3.455,1.016l-1.22,0.464
				L268.148,166.533L268.148,166.533z"/>
			<path style="fill:#FFFFFF;" d="M313.506,163.63l1.742-0.174l0.116,2.845c-4.374,0.541-8.071,0.813-11.09,0.813
				c-4.18-0.039-7.104-1.278-8.767-3.716c-1.665-2.439-2.497-6.193-2.497-11.265c0-10.14,3.986-15.211,11.961-15.211
				c3.832,0,6.696,1.094,8.593,3.28c1.896,2.187,2.845,5.681,2.845,10.48l-0.116,2.787h-19.741c0,3.561,0.61,6.203,1.829,7.925
				c1.22,1.723,3.309,2.583,6.271,2.583C307.612,163.978,310.563,163.862,313.506,163.63z M296.552,150.566h16.373
				c0-3.832-0.629-6.561-1.887-8.187c-1.258-1.626-3.272-2.439-6.038-2.439c-2.768,0-4.868,0.842-6.3,2.526
				C297.267,144.151,296.552,146.851,296.552,150.566z"/>
			<path style="fill:#FFFFFF;" d="M322.203,166.533v-41.92h3.426v41.92H322.203z"/>
			<path style="fill:#FFFFFF;" d="M332.99,166.533v-41.92h3.426v41.92H332.99z"/>
		</g>
	</g>
</g>
<g id="Layer_1">
</g>
</svg>
