<svg id="Layer_1" data-name="Layer 1" xmlns="http://www.w3.org/2000/svg" viewBox="0 0 480 75"><defs><style>.cls-1{fill:#5c5c5c;}.cls-2{fill:#be1e2d;}.cls-3{fill:#606060;}</style></defs><title>asymmetrik_logos</title><path class="cls-1" d="M324.88,22.85h23.3V31H334.73v6.1h11.9v8.3h-11.9v6.9h13.45v8.05h-23.3Z"/><path class="cls-1" d="M418.68,22.85h9.85v37.5h-9.85Z"/><path class="cls-1" d="M470.33,22.85,454.23,40l18.3,20.35h-12.9l-12.35-13.3-2.35,2.4v10.9h-9.85V22.85h9.85V35.5l12.6-12.65Z"/><path class="cls-1" d="M406.92,46.76a14.93,14.93,0,0,0,4.56-10.56c0-7.61-6.31-13.35-13.9-13.35H381.8v8.32h15.93c2.58,0,5.56,1.25,5.51,4.93,0,3.26-2.51,3.8-5.51,3.8H381.8V60.36h9.84V49.41h6.09l6.79,10.94h10.34Z"/><polygon class="cls-1" points="372.03 31.16 381.98 31.16 381.98 22.85 352.43 22.85 352.43 31.15 362.18 31.15 362.18 32.63 362.18 41.89 362.18 60.35 372.03 60.35 372.03 36.41 372.03 32.63 372.03 31.16"/><polygon class="cls-1" points="162.24 60.35 144.49 22.85 140.01 22.85 122.41 60.35 132.32 60.35 134.58 55.53 138.45 47.19 142.33 38.89 146.15 47.19 146.99 49.01 143.8 49.01 140.57 57.03 150.72 57.03 152.33 60.35 162.24 60.35"/><path class="cls-1" d="M217.94,46.55v13.8h-9.75V46.55l-13.7-23.7h11.35l7.2,12.5,7.25-12.5h11.35Z"/><polygon class="cls-2" points="208.71 22.85 217.41 22.85 213.04 30.39 208.71 22.85"/><polygon class="cls-2" points="55.07 38.43 75.91 71.6 92.92 71.6 55.21 11.6 17.42 71.6 34.18 71.6 55.07 38.43"/><polygon class="cls-3" points="42.02 71.6 54.81 51.15 67.61 71.6 42.02 71.6"/><path d="M71.48,6.76C50.25,3.63,23.74,9.23,4.26,19.89a103,103,0,0,1,28.32-9.27A92.16,92.16,0,0,1,69.06,8.25C94.21,12,101.51,28.56,85.36,45.17,73.8,57,49.85,64.49,31.86,61.78S8.65,47.25,20.2,35.37a49.28,49.28,0,0,1,13.11-9.26,60.76,60.76,0,0,1,10.57-4.89c-10.74,3.23-20.58,8.42-27,14.8C4,48.86,9.86,61.67,30,64.64s46.89-5,59.78-17.88C107.8,28.82,99.61,10.91,71.48,6.76Z"/><path class="cls-1" d="M254.28,34.75l15.25-11.9H274v37.5h-9.9V40.1l-9.8,7-9.85-6.9v20.2h-9.9V22.85H239Z"/><path class="cls-1" d="M299.28,34.75l15.25-11.9H319v37.5h-9.9V40.1l-9.8,7-9.85-6.9v20.2h-9.9V22.85H284Z"/><path class="cls-1" d="M182.55,37.51c-4.33-.69-9.18.63-9.18-2.58,0-3.36,2.16-3.49,6.12-3.49h12.13v-8.6h-12.9c-9.21,0-13.56,4-13.56,12,0,6.83,2.37,9.75,9.44,10.58,4.19.47,10.4-.37,10.22,3.13-.16,3.06-4.31,2.65-8.4,2.65H165.89v9.13h12.34c9.53,0,15.1-3.65,15.1-10.65C193.32,43.83,190.81,38.89,182.55,37.51Z"/></svg>