<?xml version="1.0" encoding="utf-8"?>
<!-- Generator: Adobe Illustrator 20.1.0, SVG Export Plug-In . SVG Version: 6.00 Build 0)  -->
<svg version="1.1" xmlns="http://www.w3.org/2000/svg" xmlns:xlink="http://www.w3.org/1999/xlink" x="0px" y="0px"
	 viewBox="0 0 3600 1800" style="enable-background:new 0 0 3600 1800;" xml:space="preserve">
<style type="text/css">
	.st0{fill:#222222;}
	.st1{fill:none;stroke:url(#SVGID_1_);stroke-width:5;stroke-miterlimit:10;}
	.st2{fill:#FFFFFF;}
	.st3{font-family:'DINPro-Regular';}
	.st4{font-size:70px;}
	.st5{fill:#F27AAA;}
	.st6{font-size:43px;}
	.st7{fill:#A7A9AC;}
	.st8{font-size:36px;}
	.st9{fill:#F1F2F2;}
	.st10{fill:#6FCCDD;}
</style>
<g id="background">
	<rect class="st0" width="3600" height="1800"/>
</g>
<g id="gradient_line">
	<linearGradient id="SVGID_1_" gradientUnits="userSpaceOnUse" x1="32.0049" y1="899.8191" x2="3561.4949" y2="899.8191">
		<stop  offset="0" style="stop-color:#6FCCDD"/>
		<stop  offset="1" style="stop-color:#F27AAA"/>
	</linearGradient>
	<rect x="34.5" y="32.7" class="st1" width="3524.5" height="1734.2"/>
</g>
<g id="Icon">
</g>
<g id="words">
	<text transform="matrix(1 0 0 1 147.0273 224.0055)" class="st2 st3 st4">Friday</text>
	<text transform="matrix(1 0 0 1 147.0277 297.7321)" class="st5 st3 st6">November 4th</text>
	<text transform="matrix(1 0 0 1 446.7731 397.7306)"><tspan x="0" y="0" class="st7 st3 st8">Pickup Location</tspan><tspan x="0" y="89" class="st5 st3 st8">University of Waterloo</tspan><tspan x="0" y="135" class="st2 st3 st8">South Campus Hall, 200</tspan><tspan x="0" y="181" class="st2 st3 st8">University Ave West Waterloo ON N2L3G1</tspan><tspan x="0" y="273" class="st5 st3 st8">University of North Carolina</tspan><tspan x="0" y="319" class="st2 st3 st8">Chapel Hill, Venable Lot South</tspan><tspan x="0" y="365" class="st2 st3 st8">Rd Chapel Hill, NC 27514</tspan><tspan x="0" y="457" class="st5 st3 st8">Johns Hopkins University</tspan><tspan x="0" y="503" class="st2 st3 st8">Mason Hall, 3101 Wyman Park Dr, </tspan><tspan x="0" y="549" class="st2 st3 st8">Baltimore, MD 21218</tspan><tspan x="0" y="641" class="st5 st3 st8">Univesrity of Pennsylvania</tspan><tspan x="0" y="687" class="st2 st3 st8">David Rittenhouse Labs on 33rd and Walnut</tspan><tspan x="0" y="733" class="st2 st3 st8">209 S 33rd St, Philadelphia, PA 19104</tspan><tspan x="0" y="825" class="st5 st3 st8">New York University</tspan><tspan x="0" y="871" class="st2 st3 st8">Broadway &amp; W 125th St, New York, NY</tspan><tspan x="0" y="1009" class="st5 st3 st8">University of Florida</tspan><tspan x="0" y="1055" class="st2 st3 st8">Commuter Lot, </tspan><tspan x="0" y="1101" class="st2 st3 st8">966 Gale Lemerand Drive, Gainesville, FL </tspan></text>
	<text transform="matrix(1 0 0 1 3239.1348 397.731)"><tspan x="0" y="0" class="st7 st3 st8">Destination</tspan><tspan x="0" y="92" class="st2 st3 st8">UMD, </tspan><tspan x="0" y="138" class="st2 st3 st8">College Park</tspan><tspan x="0" y="276" class="st2 st3 st8">UMD, </tspan><tspan x="0" y="322" class="st2 st3 st8">College Park</tspan><tspan x="0" y="460" class="st2 st3 st8">UMD, </tspan><tspan x="0" y="506" class="st2 st3 st8">College Park</tspan><tspan x="0" y="644" class="st2 st3 st8">UMD, </tspan><tspan x="0" y="690" class="st2 st3 st8">College Park</tspan><tspan x="0" y="828" class="st2 st3 st8">UMD, </tspan><tspan x="0" y="874" class="st2 st3 st8">College Park</tspan><tspan x="0" y="1012" class="st2 st3 st8">UMD, </tspan><tspan x="0" y="1058" class="st2 st3 st8">College Park </tspan></text>
	<text transform="matrix(1 0 0 1 1806.9973 397.7308)"><tspan x="0" y="0" class="st7 st3 st8">Stop + Pickup Location</tspan><tspan x="0" y="92" class="st5 st3 st8">Western University</tspan><tspan x="0" y="138" class="st9 st3 st8">Elgin Dropoff Behind Western Social Science Centre</tspan><tspan x="0" y="276" class="st5 st3 st8">University of Virginia</tspan><tspan x="0" y="322" class="st9 st3 st8">Scott Stadium (Large Parking Lot), </tspan><tspan x="0" y="368" class="st9 st3 st8">1815 Stadium Rd, Charlottesville, VA 22903</tspan><tspan x="0" y="460" class="st5 st3 st8">University of Maryland, Baltimore County</tspan><tspan x="0" y="506" class="st2 st3 st8">Near Retriever Activites  Center (RAC)</tspan><tspan x="0" y="644" class="st5 st3 st8">Temple University</tspan><tspan x="0" y="690" class="st2 st3 st8">Pearson and McGonigle Halls,</tspan><tspan x="0" y="736" class="st2 st3 st8">1800 N. Broad Street Philadelphia, PA 19122</tspan><tspan x="0" y="828" class="st5 st3 st8">Rutgers University</tspan><tspan x="0" y="874" class="st2 st3 st8">Busch Campus Center, </tspan><tspan x="0" y="920" class="st2 st3 st8">604 Bartholomew Rd, Piscataway, Township, NJ 08854</tspan><tspan x="0" y="1012" class="st5 st3 st8">Georgia Tech University, </tspan><tspan x="0" y="1058" class="st2 st3 st8">266 4th St NW, Atlanta, GA 30313</tspan></text>
	<g>
		<text transform="matrix(1 0 0 1 192.0858 489.7302)"><tspan x="0" y="0" class="st10 st3 st8">9:45 am</tspan><tspan x="0" y="184" class="st10 st3 st8">2:45 pm</tspan><tspan x="0" y="368" class="st10 st3 st8">8:15 pm</tspan><tspan x="0" y="552" class="st10 st3 st8">6:00 pm</tspan><tspan x="0" y="736" class="st10 st3 st8">4:15 pm</tspan><tspan x="0" y="920" class="st10 st3 st8">7:00 am </tspan></text>
		<text transform="matrix(1 0 0 1 147.0276 397.73)" class="st10 st3 st8">Departure Time </text>
	</g>
	<g>
		<text transform="matrix(1 0 0 1 1247.9919 489.7309)"><tspan x="0" y="0" class="st7 st3 st8">1.5 hrs</tspan><tspan x="-69.7" y="46" class="st7 st3 st8">---------------&gt;</tspan><tspan x="14.3" y="184" class="st7 st3 st8">4 hrs</tspan><tspan x="-69.7" y="230" class="st7 st3 st8">---------------&gt;</tspan><tspan x="50.3" y="276" class="st7 st3 st8"> </tspan><tspan x="-7.9" y="368" class="st7 st3 st8">30 mins</tspan><tspan x="-69.7" y="414" class="st7 st3 st8">---------------&gt;</tspan><tspan x="-7.9" y="552" class="st7 st3 st8">15 mins</tspan><tspan x="-69.7" y="598" class="st7 st3 st8">---------------&gt;</tspan><tspan x="14.3" y="736" class="st7 st3 st8">1 hrs</tspan><tspan x="-69.7" y="782" class="st7 st3 st8">---------------&gt;</tspan><tspan x="14.3" y="920" class="st7 st3 st8">5 hrs</tspan><tspan x="-69.7" y="966" class="st7 st3 st8">---------------&gt;</tspan><tspan x="50.3" y="1012" class="st7 st3 st8"> </tspan></text>
		<text transform="matrix(1 0 0 1 1219.0011 397.7308)" class="st7 st3 st8">Travel Time </text>
	</g>
	<g>
		<text transform="matrix(1 0 0 1 1516.4187 489.7305)"><tspan x="0" y="0" class="st10 st3 st8">11:30 am</tspan><tspan x="0" y="184" class="st10 st3 st8">7:00 pm</tspan><tspan x="0" y="368" class="st10 st3 st8">9:00 pm</tspan><tspan x="0" y="552" class="st10 st3 st8">6:30 pm</tspan><tspan x="0" y="736" class="st10 st3 st8">5:30 pm </tspan><tspan x="0" y="920" class="st10 st3 st8">12:15 pm</tspan></text>
		<text transform="matrix(1 0 0 1 1467.2064 397.7305)" class="st10 st3 st8">Departure Time </text>
	</g>
	<g>
		<text transform="matrix(1 0 0 1 2766.2188 489.7309)"><tspan x="0" y="0" class="st7 st3 st8">10.5 hrs</tspan><tspan x="-60.3" y="46" class="st7 st3 st8">---------------&gt;</tspan><tspan x="9.4" y="184" class="st7 st3 st8">2.5 hrs</tspan><tspan x="-60.3" y="230" class="st7 st3 st8">---------------&gt;</tspan><tspan x="59.7" y="276" class="st7 st3 st8"> </tspan><tspan x="1.5" y="368" class="st7 st3 st8">30 mins</tspan><tspan x="-60.3" y="414" class="st7 st3 st8">---------------&gt;</tspan><tspan x="23.7" y="552" class="st7 st3 st8">3 hrs</tspan><tspan x="-60.3" y="598" class="st7 st3 st8">---------------&gt;</tspan><tspan x="23.7" y="736" class="st7 st3 st8">4 hrs</tspan><tspan x="-60.3" y="782" class="st7 st3 st8">---------------&gt;</tspan><tspan x="9.4" y="920" class="st7 st3 st8">9.5 hrs</tspan><tspan x="-60.3" y="966" class="st7 st3 st8">---------------&gt;</tspan><tspan x="59.7" y="1012" class="st7 st3 st8"> </tspan></text>
		<text transform="matrix(1 0 0 1 2746.6233 397.7308)" class="st7 st3 st8">Travel Time </text>
	</g>
	<g>
		<text transform="matrix(1 0 0 1 3024.1069 443.7304)"><tspan x="0" y="0" class="st10 st3 st8">     </tspan><tspan x="0" y="46" class="st10 st3 st8">10:00 pm</tspan><tspan x="0" y="230" class="st10 st3 st8">9:30 pm </tspan><tspan x="0" y="414" class="st10 st3 st8">9:30 pm</tspan><tspan x="0" y="598" class="st10 st3 st8">9:30 pm</tspan><tspan x="0" y="782" class="st10 st3 st8">9:30 pm</tspan><tspan x="0" y="966" class="st10 st3 st8">9:45 pm</tspan></text>
		<text transform="matrix(1 0 0 1 2994.8281 397.7309)" class="st10 st3 st8">Arrival Time </text>
	</g>
</g>
</svg>
