<?xml version="1.0" encoding="utf-8"?>
<!-- Generator: Adobe Illustrator 16.0.3, SVG Export Plug-In . SVG Version: 6.00 Build 0)  -->
<!DOCTYPE svg PUBLIC "-//W3C//DTD SVG 1.1//EN" "http://www.w3.org/Graphics/SVG/1.1/DTD/svg11.dtd">
<svg version="1.1" id="Layer_1" xmlns="http://www.w3.org/2000/svg" xmlns:xlink="http://www.w3.org/1999/xlink" x="0px" y="0px"
	 width="650.376px" height="541.656px" viewBox="0 0 650.376 541.656" enable-background="new 0 0 650.376 541.656"
	 xml:space="preserve">
<g>
	<defs>
		<rect id="SVGID_1_" width="650.376" height="541.656"/>
	</defs>
	<clipPath id="SVGID_2_">
		<use xlink:href="#SVGID_1_"  overflow="visible"/>
	</clipPath>
	<path clip-path="url(#SVGID_2_)" fill-rule="evenodd" clip-rule="evenodd" fill="#EE3124" d="M240.079,232.239
		c2.368-1.217,20.021-10.597,35.585-28.821c2.658-2.949,0.634-5.802-2.67-6.551c-22.306-6.219-30.3-19.729-48.515-19.517
		c-8.574-0.189-16.321,3.191-22.315,10.333c-10.526,12.553-8.889,31.266,3.664,41.796
		C215.75,237.807,229.54,238.531,240.079,232.239"/>
	<path clip-path="url(#SVGID_2_)" fill-rule="evenodd" clip-rule="evenodd" fill="#EE3124" d="M410.298,232.239
		c-2.37-1.217-20.022-10.597-35.581-28.821c-2.659-2.949-0.645-5.802,2.67-6.551c22.294-6.219,30.295-19.729,48.508-19.517
		c8.575-0.189,16.325,3.191,22.312,10.333c10.529,12.553,8.897,31.266-3.654,41.796
		C434.613,237.807,420.835,238.531,410.298,232.239"/>
	<path clip-path="url(#SVGID_2_)" fill-rule="evenodd" clip-rule="evenodd" fill="#EE3124" d="M329.233,240.966
		c6.528,13.957,25.655,30.31,30.166,41.245c1.391,3.455,2.275,7.167,2.554,11.069l0.089,1.81
		c0.012,21.063-16.366,37.419-36.587,37.419s-36.598-16.356-36.598-36.534c0-5.3,1.13-10.342,3.161-14.877
		c3.887-8.697,21.423-26.175,29.01-40.175C322.922,236.818,327.567,236.703,329.233,240.966"/>
	<path clip-path="url(#SVGID_2_)" fill-rule="evenodd" clip-rule="evenodd" fill="#EE3124" d="M370.214,281.053
		c-1.132-2.49-12.365-25.444-13.437-49.936c-0.274-4.058,2.782-5.968,6.288-3.603c14.473,7.427,25.32,7.919,39.129,12.399
		c16.122,3.683,26.144,13.977,26.679,29.091c0.58,16.759-12.526,30.818-29.287,31.396
		C386.328,300.862,374.762,292.761,370.214,281.053"/>
	<path clip-path="url(#SVGID_2_)" fill-rule="evenodd" clip-rule="evenodd" fill="#EE3124" d="M342.447,197.057
		c-3.514,5.664-10.018,9.467-17.171,9.569c-7.657-0.092-13.638-3.892-17.15-9.569c-1.222-1.967-0.7-5.095,3.055-3.759
		c4.352,1.696,9.099,2.634,14.087,2.634c5.02,0,9.761-0.938,14.122-2.634C343.145,191.961,343.664,195.089,342.447,197.057"/>
	<path clip-path="url(#SVGID_2_)" fill-rule="evenodd" clip-rule="evenodd" fill="#F58025" d="M280.307,281.053
		c1.141-2.49,12.369-25.444,13.439-49.936c0.272-4.058-2.782-5.968-6.286-3.603c-14.477,7.427-25.317,7.919-39.126,12.399
		c-16.129,3.683-26.149,13.977-26.684,29.091c-0.577,16.759,12.533,30.818,29.291,31.396
		C264.197,300.862,275.761,292.761,280.307,281.053"/>
	<path clip-path="url(#SVGID_2_)" fill-rule="evenodd" clip-rule="evenodd" fill="#F58025" d="M210.293,164.629
		c-4.165,1.997-8.482-1.163-7.077-4.912c18.355-50.024,63.199-86.608,122.148-86.608c59.13,0,103.759,36.584,121.903,85.96
		c1.62,4.397-2.688,7.557-6.86,5.56c-7.514-3.626-14.844-2.543-23.315-0.314c-1.673,0.329-21.698,7.152-35.22,7.152
		c-5.807-0.176-9.421-1.176-11.445-1.971c-1.465-0.582-1.535-2.043-1.019-3.483c2.212-5.446,3.427-11.393,3.427-17.635
		c0-26.024-21.277-47.108-47.507-47.108c-26.229,0-47.472,21.084-47.472,47.108c0,6.242,1.219,12.189,3.442,17.635
		c0.51,1.44,0.439,2.901-1.029,3.483c-2.02,0.795-5.643,1.795-11.447,1.971c-13.517,0-33.546-6.823-35.219-7.152
		C225.131,162.086,217.803,161.003,210.293,164.629"/>
	<path clip-path="url(#SVGID_2_)" fill-rule="evenodd" clip-rule="evenodd" fill="#EE3124" d="M294.799,170.773
		c0-6.955,5.643-12.6,12.607-12.6c2.97,0,5.707,1.03,7.865,2.755c2.31,1.845,1.481,4.2-0.587,4.2l-1.993-0.007
		c-3.15,0-5.698,2.553-5.698,5.698c0,3.152,2.548,5.696,5.698,5.696h1.887c2.174,0,3.042,2.226,0.733,4.089
		c-2.162,1.746-4.911,2.786-7.905,2.786C300.442,183.39,294.799,177.748,294.799,170.773"/>
	<path clip-path="url(#SVGID_2_)" fill-rule="evenodd" clip-rule="evenodd" fill="#EE3124" d="M330.515,170.773
		c0-6.955,5.641-12.6,12.608-12.6c2.969,0,5.701,1.03,7.863,2.755c2.308,1.845,1.487,4.2-0.587,4.2l-1.993-0.007
		c-3.149,0-5.697,2.553-5.697,5.698c0,3.152,2.548,5.696,5.697,5.696h1.886c2.182,0,3.043,2.226,0.74,4.089
		c-2.169,1.746-4.917,2.786-7.909,2.786C336.155,183.39,330.515,177.748,330.515,170.773"/>
	<path clip-path="url(#SVGID_2_)" fill="#F58025" d="M135.686,362.604c0,3.82-1.799,4.942-5.315,4.942
		c-3.594,0-5.238-0.899-7.933-4.643c-2.694-3.89-7.485-7.409-14.222-7.409c-12.346,0-18.931,11.3-18.931,22.451
		c0,12.726,7.403,23.427,20.428,23.427c6.513,0,11.156-3.663,15.42-8.006c2.468-2.471,5.238-3.364,8.981-0.373
		c3.666,2.842,3.741,4.939,1.346,8.528c-3.817,5.69-12.424,12.651-26.865,12.651c-20.211,0-35.407-14.518-35.407-35.703
		c0-22.229,16.544-35.849,34.358-35.849c7.555,0,13.921,3.37,16.76,7.259v-0.895c0-3.894,1.875-5.466,5.468-5.466h1.12
		c3.444,0,4.792,1.572,4.792,4.865V362.604z"/>
	<path clip-path="url(#SVGID_2_)" fill="#F58025" d="M191.369,401.419h0.114c4.012,0,5.349,1.002,5.349,5.014v0.559
		c0,4.014-1.337,5.351-5.349,5.351h-7.358c-5.464,0-7.36-1.896-7.36-7.352v-1.007c-2.229,5.129-7.362,9.363-15.051,9.363
		c-10.369,0-17.727-7.582-17.727-21.07v-16.055h-0.113c-3.678,0-4.907-1.229-4.907-4.904v-0.893c0-4.124,1.452-5.576,5.576-5.576
		h7.137c5.463,0,7.356,1.894,7.356,7.357v20.849c0,5.354,2.569,8.473,7.916,8.473c6.021,0,9.365-3.455,9.365-9.474v-15.832h-0.443
		c-3.235,0-4.573-1.229-4.573-4.904v-0.893c0-4.124,1.449-5.576,5.573-5.576h7.138c5.461,0,7.357,1.894,7.357,7.357V401.419z"/>
	<path clip-path="url(#SVGID_2_)" fill="#F58025" d="M235.29,379.343c-3.905,0-5.574-1.339-7.247-3.122
		c-1.447-1.449-3.455-2.566-7.361-2.566c-2.785,0-5.57,1.004-5.57,3.57c0,2.453,2.675,3.567,8.247,4.795
		c12.933,3.009,17.84,7.468,17.84,15.941c0,8.25-5.349,15.496-18.284,15.496c-6.579,0-9.925-2.116-12.377-4.57
		c-0.333,2.79-1.784,3.456-4.458,3.456h-1.005c-3.122,0-4.237-1.113-4.237-4.234v-6.581c0-3.676,1.231-4.904,5.018-4.904
		c3.456,0,4.796,1.004,6.242,3.011c1.451,2.007,3.343,3.904,8.252,3.904c3.789,0,6.467-1.116,6.467-3.569s-2.009-3.233-9.256-5.018
		c-8.471-2.119-15.94-5.464-15.94-15.943c0-9.813,7.469-15.272,17.056-15.272c5.462,0,8.699,2.119,11.039,4.569
		c0.557-2.45,2.005-3.456,4.795-3.456h0.89c3.013,0,4.128,1.115,4.128,4.126v5.797C239.529,378.117,238.3,379.343,235.29,379.343"/>
	<path clip-path="url(#SVGID_2_)" fill="#F58025" d="M266.054,414.131c-9.589,0-16.499-6.022-16.499-18.955v-18.955h-1.451
		c-4.123,0-5.576-1.449-5.576-5.574v-0.221c0-4.124,1.453-5.577,5.576-5.577h1.451v-9.586c0-5.464,1.895-7.36,7.359-7.36h0.221
		c5.465,0,7.358,1.896,7.358,7.36v9.586h6.58c4.124,0,5.576,1.453,5.576,5.577v0.221c0,4.125-1.452,5.574-5.576,5.574h-6.58v20.625
		c0,4.574,1.34,5.688,3.458,5.688c1.67,0,2.562-1.006,3.788-2.564c1.23-1.562,3.794-1.783,5.354,0l2.007,2.229
		c1.447,1.669,1.225,3.677-0.781,6.132C275.867,411.229,271.964,414.131,266.054,414.131"/>
	<path clip-path="url(#SVGID_2_)" fill="#F58025" d="M307.297,413.346c-14.713,0-26.196-10.252-26.196-24.635
		c0-14.496,11.483-24.863,26.196-24.863c14.72,0,26.091,10.367,26.091,24.863C333.389,403.094,322.017,413.346,307.297,413.346
		 M307.297,401.861c6.696,0,10.706-5.461,10.706-13.15c0-7.808-4.01-13.159-10.706-13.159c-6.684,0-10.81,5.352-10.81,13.159
		C296.487,396.4,300.613,401.861,307.297,401.861"/>
	<path clip-path="url(#SVGID_2_)" fill="#F58025" d="M373.966,412.342c-4.014,0-5.352-1.112-5.352-5.123v-1.344
		c0-3.118,1.113-4.456,4.233-4.456h0.114v-16.722c0-5.577-1.673-8.589-7.359-8.589c-5.795,0-8.475,2.898-8.475,9.368v15.942h0.116
		c3.226,0,4.343,1.338,4.343,4.571v1.229c0,4.011-1.332,5.123-5.351,5.123h-14.268c-4.019,0-5.354-1.112-5.354-5.123v-1.344
		c0-3.118,1.118-4.456,5.354-4.456h0.107v-25.198h-0.332c-4.011,0-5.129-1.338-5.129-5.352v-0.892c0-4.123,1.45-5.129,5.576-5.129
		h7.134c5.463,0,7.364,1.114,7.364,6.578v1.45c3.007-6.354,8.021-9.028,14.151-9.028c7.471,0,11.596,3.456,14.496,9.028
		c2.788-5.464,7.242-9.028,14.493-9.028c11.927,0,18.84,7.914,18.84,20.955v16.615h0.112c3.679,0,4.908,1.338,4.908,4.456v1.344
		c0,4.011-1.338,5.123-5.354,5.123h-13.601c-4.013,0-5.352-1.112-5.352-5.123v-1.344c0-3.118,1.115-4.456,4.24-4.456h0.11v-16.722
		c0-5.577-1.783-8.589-7.472-8.589c-5.798,0-8.365,2.898-8.365,9.368v15.942h0.115c3.235,0,4.35,1.338,4.35,4.571v1.229
		c0,4.011-1.34,5.123-5.354,5.123H373.966z"/>
	<path clip-path="url(#SVGID_2_)" fill="#EE3124" d="M449.208,355.04v46.379h0.672c4.008,0,5.352,1.338,5.352,5.349v0.224
		c0,4.015-1.344,5.351-5.352,5.351h-16.947c-4.018,0-5.354-1.336-5.354-5.351v-0.224c0-4.011,1.337-5.349,5.354-5.349h0.666V355.04
		h-0.666c-4.018,0-5.354-1.339-5.354-5.356v-0.221c0-4.012,1.337-5.351,5.354-5.351h16.947c4.008,0,5.352,1.339,5.352,5.351v0.221
		c0,4.018-1.344,5.356-5.352,5.356H449.208z"/>
	<path clip-path="url(#SVGID_2_)" fill="#EE3124" d="M464.256,412.342c-4.015,0-5.355-1.112-5.355-5.123v-1.344
		c0-3.118,1.119-4.456,5.355-4.456h0.111v-25.198h-0.111c-4.015,0-5.355-1.338-5.355-5.352v-1.002c0-4.124,1.453-5.019,5.579-5.019
		h7.134c5.467,0,7.361,1.452,7.361,6.914v1c2.787-5.796,8.583-8.914,15.161-8.914c10.37,0,17.84,7.578,17.84,21.068v16.502h0.109
		c3.68,0,4.903,1.114,4.903,4.571v1.229c0,3.898-1.336,5.123-5.348,5.123h-14.161c-4.014,0-5.351-1.112-5.351-5.123v-1.344
		c0-3.453,1.227-4.456,4.685-4.456h0.11v-16.166c0-6.133-2.566-9.145-7.917-9.145c-6.022,0-9.59,3.348-9.59,10.146v15.164h0.111
		c3.456,0,4.686,1.114,4.686,4.571v1.229c0,4.011-1.336,5.123-5.354,5.123H464.256z"/>
	<path clip-path="url(#SVGID_2_)" fill="#EE3124" d="M553.886,375.664c-3.9,0-5.128-1.339-5.128-5.354v-0.222
		c0-3.902,1.337-5.239,5.354-5.239h15.053c4.126,0,5.571,1.453,5.571,5.577v0.221c0,4.125-1.562,5.574-5.688,5.574h-1.222
		l-9.367,7.694l12.603,17.504h0.556c3.901,0,5.57,0.892,5.57,5.014v0.559c0,4.126-1.336,5.352-5.353,5.352h-15.828
		c-3.9,0-5.241-1.002-5.241-5.352v-0.559c0-4.234,1.115-4.905,3.12-4.905h0.226l-6.802-9.251l-6.688,4.796v4.347h0.109
		c3.008,0,4.015,0.779,4.015,5.014v0.559c0,4.238-1.34,5.352-5.354,5.352h-13.937c-4.013,0-5.35-1.113-5.35-5.352v-0.559
		c0-3.788,1.116-5.014,5.35-5.014h0.111V355.04h-1.227c-4.008,0-5.352-1.338-5.352-5.355v-0.222c0-4.013,1.344-5.351,5.352-5.351
		h8.921c5.465,0,7.36,1.896,7.36,7.359v35.006l13.824-10.813H553.886z"/>
	<path clip-path="url(#SVGID_2_)" fill="#EE3124" d="M127.97,433.122c0-1.191,0.619-1.456,1.722-1.456h8.573
		c8.655,0,14.525,5.299,14.525,13.513c0,8.216-5.83,13.52-14.525,13.52h-8.573c-1.103,0-1.722-0.27-1.722-1.46V456.8
		c0-1.197,0.619-1.459,1.722-1.459h0.889v-20.319h-0.889c-1.103,0-1.722-0.265-1.722-1.458V433.122z M135.256,455.028h2.743
		c7.063,0,10.029-3.754,10.029-9.85c0-6.093-2.966-9.847-10.029-9.847h-2.743V455.028z"/>
	<path clip-path="url(#SVGID_2_)" fill="#EE3124" d="M159.735,450.831c0.351,2.831,2.298,4.771,5.741,4.771
		c1.636,0,2.869-0.392,3.889-1.015c1.141-0.707,1.81-0.618,2.74,0.351c0.876,0.932,0.835,1.549-0.221,2.3
		c-1.546,1.104-3.493,1.812-6.451,1.812c-6.493,0-10.248-4.111-10.248-9.631c0-5.524,4.197-9.675,9.763-9.675
		c5.294,0,8.565,3.45,9.321,8.175c0.352,2.123-0.312,2.912-2.48,2.912H159.735z M169.801,447.783
		c-0.127-2.604-1.845-4.589-4.853-4.589c-2.873,0-4.903,1.812-5.258,4.589H169.801z"/>
	<path clip-path="url(#SVGID_2_)" fill="#EE3124" d="M188.854,445.491c-0.846,0-1.332-0.224-2.21-1.236
		c-0.799-0.931-1.992-1.373-3.277-1.373c-1.497,0-2.736,0.62-2.736,1.943c0,1.28,1.02,1.812,3.758,2.518
		c4.465,1.146,6.712,2.653,6.712,6.007c0,3.138-2.164,5.742-6.89,5.742c-2.605,0-4.063-0.88-5.037-2.029
		c-0.086,1.367-0.615,1.636-1.636,1.636h-0.087c-0.971,0-1.32-0.356-1.32-1.328v-3.09c0-1.107,0.349-1.504,1.407-1.549
		c1.068,0.045,1.636,0.351,2.344,1.414c0.749,1.104,2.078,1.724,3.665,1.724c1.987,0,3.273-0.709,3.273-2.034
		c0-1.501-1.155-1.852-4.16-2.646c-3.352-0.932-6.094-2.165-6.094-5.965c0-3.446,2.836-5.521,6.318-5.521
		c2.124,0,3.45,0.835,4.373,1.857c0.22-1.15,0.707-1.462,1.68-1.462h0.089c0.975,0,1.321,0.355,1.321,1.33v2.602
		c0,1.061-0.265,1.412-1.321,1.412L188.854,445.491z"/>
	<path clip-path="url(#SVGID_2_)" fill="#EE3124" d="M198.04,440.145c2.162,0,2.917,0.754,2.917,2.915v12.324h0.837
		c1.188,0,1.592,0.397,1.592,1.585v0.094c0,1.188-0.404,1.593-1.592,1.593h-6.137c-1.195,0-1.594-0.404-1.594-1.593v-0.094
		c0-1.188,0.399-1.585,1.594-1.585h0.885v-11.793h-0.839c-1.241,0-1.686-0.439-1.686-1.681v-0.089c0-1.229,0.445-1.677,1.686-1.677
		H198.04z M198.571,437.143c-1.548,0-2.914-1.149-2.914-2.876c0-1.674,1.366-2.823,2.914-2.823c1.546,0,2.829,1.149,2.829,2.823
		C201.4,435.993,200.117,437.143,198.571,437.143"/>
	<path clip-path="url(#SVGID_2_)" fill="#EE3124" d="M214.961,468.506c-3.804,0-6.452-1.327-8.349-3.405
		c-0.93-1.018-0.84-1.684,0.309-2.471h0.045c1.147-0.839,1.849-0.798,2.868,0.26c1.283,1.328,2.874,2.076,4.991,2.076
		c3.494,0,5.524-1.854,5.524-5.96v-3.666c-1.241,2.341-3.403,3.709-6.499,3.709c-4.768,0-8.651-4.062-8.651-9.676
		c0-5.608,3.837-9.63,8.612-9.63c3.223,0,5.473,1.686,6.667,3.935v-0.618c0-2.163,0.756-2.915,2.914-2.915h2.124
		c1.239,0,1.675,0.442,1.675,1.677v0.089c0,1.241-0.436,1.681-1.675,1.681h-0.707v14.976c0,7.195-4.371,9.98-9.804,9.98
		L214.961,468.506z M215.005,443.37c-3.184,0-5.217,2.386-5.217,6.049c0,3.533,2.033,5.965,5.217,5.965
		c3.264,0,5.433-2.432,5.433-5.965C220.438,445.756,218.269,443.37,215.005,443.37"/>
	<path clip-path="url(#SVGID_2_)" fill="#EE3124" d="M230.469,458.698c-1.194,0-1.586-0.402-1.586-1.592v-0.09
		c0-1.186,0.392-1.588,1.586-1.588h0.837v-11.792h-0.793c-1.238,0-1.676-0.442-1.676-1.679v-0.089c0-1.236,0.438-1.683,1.676-1.683
		h2.207c2.168,0,2.92,0.755,2.92,2.917v0.533c1.145-2.432,3.538-3.844,6.311-3.844c4.111,0,6.94,2.913,6.94,7.947v7.688h0.745
		c1.194,0,1.594,0.402,1.594,1.588v0.09c0,1.189-0.4,1.592-1.594,1.592h-5.917c-1.191,0-1.59-0.402-1.59-1.592v-0.09
		c0-1.186,0.399-1.588,1.59-1.588h0.751v-7.511c0-2.869-1.276-4.416-3.885-4.416c-2.872,0-4.771,1.766-4.771,4.986v6.94h0.799
		c1.19,0,1.585,0.402,1.585,1.588v0.09c0,1.189-0.395,1.592-1.585,1.592H230.469z"/>
	<path clip-path="url(#SVGID_2_)" fill="#EE3124" d="M264.224,437.892c0,1.151-0.712,1.635-1.857,1.635h-0.703
		c-1.109,0-1.636-0.531-1.636-1.635v-3.313c0-2.162,0.746-2.913,2.91-2.913h17.364c2.158,0,2.917,0.751,2.917,2.913v3.313
		c0,1.104-0.534,1.635-1.643,1.635h-0.701c-1.15,0-1.859-0.483-1.859-1.635v-2.56h-5.075v20.008h1.277
		c1.238,0,1.633,0.396,1.633,1.629v0.094c0,1.233-0.395,1.636-1.633,1.636h-7.236c-1.244,0-1.64-0.402-1.64-1.636v-0.094
		c0-1.233,0.396-1.629,1.64-1.629h1.319v-20.008h-5.077V437.892z"/>
	<path clip-path="url(#SVGID_2_)" fill="#EE3124" d="M282.598,450.083c-1.323,0-1.766-0.44-1.766-1.764v-0.089
		c0-1.328,0.443-1.774,1.766-1.774h5.74c1.329,0,1.77,0.446,1.77,1.774v0.089c0,1.323-0.441,1.764-1.77,1.764H282.598z"/>
	<path clip-path="url(#SVGID_2_)" fill="#EE3124" d="M305.792,445.491c-0.845,0-1.33-0.224-2.207-1.236
		c-0.798-0.931-1.991-1.373-3.272-1.373c-1.506,0-2.736,0.62-2.736,1.943c0,1.28,1.013,1.812,3.753,2.518
		c4.462,1.146,6.709,2.653,6.709,6.007c0,3.138-2.157,5.742-6.89,5.742c-2.607,0-4.063-0.88-5.029-2.029
		c-0.091,1.367-0.617,1.636-1.636,1.636h-0.091c-0.972,0-1.328-0.356-1.328-1.328v-3.09c0-1.107,0.356-1.504,1.419-1.549
		c1.06,0.045,1.636,0.351,2.337,1.414c0.756,1.104,2.077,1.724,3.67,1.724c1.995,0,3.269-0.709,3.269-2.034
		c0-1.501-1.149-1.852-4.153-2.646c-3.359-0.932-6.093-2.165-6.093-5.965c0-3.446,2.822-5.521,6.312-5.521
		c2.121,0,3.45,0.835,4.37,1.857c0.229-1.15,0.711-1.462,1.686-1.462h0.087c0.966,0,1.319,0.355,1.319,1.33v2.602
		c0,1.061-0.262,1.412-1.319,1.412L305.792,445.491z"/>
	<path clip-path="url(#SVGID_2_)" fill="#EE3124" d="M312.601,434.98h-1.243c-1.233,0-1.626-0.401-1.626-1.64v-0.082
		c0-1.2,0.393-1.592,1.626-1.592h2.699c2.163,0,2.912,0.75,2.912,2.912v8.878c1.154-2.298,3.407-3.713,6.188-3.713
		c4.106,0,6.935,2.917,6.935,7.952v7.688h0.746c1.199,0,1.591,0.396,1.591,1.585v0.094c0,1.188-0.392,1.592-1.591,1.592h-5.913
		c-1.198,0-1.596-0.403-1.596-1.592v-0.094c0-1.188,0.398-1.585,1.596-1.585h0.75v-7.506c0-2.872-1.283-4.421-3.89-4.421
		c-2.868,0-4.775,1.768-4.775,4.992v6.935h0.805c1.19,0,1.591,0.396,1.591,1.585v0.094c0,1.188-0.401,1.592-1.591,1.592h-6.052
		c-1.191,0-1.591-0.403-1.591-1.592v-0.094c0-1.188,0.4-1.585,1.591-1.585h0.839V434.98z"/>
	<path clip-path="url(#SVGID_2_)" fill="#EE3124" d="M338.134,440.145c2.165,0,2.916,0.754,2.916,2.915v12.324h0.841
		c1.187,0,1.585,0.397,1.585,1.585v0.094c0,1.188-0.398,1.593-1.585,1.593h-6.147c-1.188,0-1.586-0.404-1.586-1.593v-0.094
		c0-1.188,0.397-1.585,1.586-1.585h0.886v-11.793h-0.841c-1.233,0-1.676-0.439-1.676-1.681v-0.089c0-1.229,0.442-1.677,1.676-1.677
		H338.134z M338.661,437.143c-1.545,0-2.918-1.149-2.918-2.876c0-1.674,1.373-2.823,2.918-2.823c1.552,0,2.826,1.149,2.826,2.823
		C341.487,435.993,340.213,437.143,338.661,437.143"/>
	<path clip-path="url(#SVGID_2_)" fill="#EE3124" d="M352.444,455.384h1.546c1.198,0,1.59,0.396,1.59,1.585v0.094
		c0,1.234-0.392,1.635-1.59,1.635h-6.8c-1.235,0-1.636-0.4-1.636-1.635v-0.094c0-1.188,0.4-1.585,1.636-1.585h0.795v-11.793h-0.795
		c-1.235,0-1.678-0.44-1.678-1.681v-0.09c0-1.233,0.442-1.676,1.678-1.676h2.207c2.165,0,2.917,0.753,2.917,2.915v0.397
		c1.326-2.959,3.354-3.399,4.593-3.399c1.499,0,2.074,0.924,2.074,1.853v0.446c0,1.146-0.792,1.719-2.337,1.719
		c-3.183,0-4.2,1.588-4.2,5.39V455.384z"/>
	<path clip-path="url(#SVGID_2_)" fill="#EE3124" d="M372.061,458.08c-0.93,0.575-1.942,1.061-3.445,1.061
		c-3.268,0-5.74-1.549-5.74-6.583v-8.969h-1.109c-1.238,0-1.671-0.438-1.671-1.679v-0.089c0-1.234,0.433-1.677,1.671-1.677h1.109
		v-4.416c0-1.638,0.574-2.206,2.205-2.206h0.091c1.637,0,2.206,0.568,2.206,2.206v4.416h3.27c1.243,0,1.68,0.442,1.68,1.677v0.089
		c0,1.24-0.437,1.679-1.68,1.679h-3.27v9.231c0,2.167,0.798,2.782,1.948,2.782c0.486,0,0.966-0.31,1.372-0.574
		c0.665-0.44,1.192-0.354,1.723,0.444l0.346,0.529c0.575,0.837,0.353,1.455-0.659,2.078H372.061z"/>
	<path clip-path="url(#SVGID_2_)" fill="#EE3124" d="M387.571,445.491c-0.847,0-1.327-0.224-2.209-1.236
		c-0.795-0.931-1.989-1.373-3.277-1.373c-1.491,0-2.729,0.62-2.729,1.943c0,1.28,1.01,1.812,3.748,2.518
		c4.468,1.146,6.717,2.653,6.717,6.007c0,3.138-2.162,5.742-6.888,5.742c-2.608,0-4.063-0.88-5.039-2.029
		c-0.087,1.367-0.617,1.636-1.631,1.636h-0.091c-0.973,0-1.325-0.356-1.325-1.328v-3.09c0-1.107,0.353-1.504,1.416-1.549
		c1.058,0.045,1.631,0.351,2.345,1.414c0.748,1.104,2.063,1.724,3.661,1.724c1.989,0,3.271-0.709,3.271-2.034
		c0-1.501-1.151-1.852-4.16-2.646c-3.356-0.932-6.09-2.165-6.09-5.965c0-3.446,2.826-5.521,6.314-5.521
		c2.124,0,3.449,0.835,4.369,1.857c0.227-1.15,0.71-1.462,1.686-1.462h0.085c0.973,0,1.327,0.355,1.327,1.33v2.602
		c0,1.061-0.265,1.412-1.327,1.412L387.571,445.491z"/>
	<path clip-path="url(#SVGID_2_)" fill="#EE3124" d="M416.015,459.05c-7.812,0-13.954-5.744-13.954-13.825
		s6.143-13.823,13.954-13.823c7.823,0,13.959,5.742,13.959,13.823S423.838,459.05,416.015,459.05 M416.015,455.21
		c5.438,0,9.232-4.15,9.232-9.985c0-5.83-3.795-9.981-9.232-9.981c-5.432,0-9.231,4.151-9.231,9.981
		C406.783,451.06,410.583,455.21,416.015,455.21"/>
	<path clip-path="url(#SVGID_2_)" fill="#EE3124" d="M433.914,458.698c-1.193,0-1.589-0.402-1.589-1.592v-0.09
		c0-1.186,0.396-1.588,1.589-1.588h0.838v-11.792h-0.797c-1.234,0-1.675-0.442-1.675-1.679v-0.089c0-1.236,0.44-1.683,1.675-1.683
		h2.214c2.163,0,2.914,0.755,2.914,2.917v0.533c1.148-2.432,3.534-3.844,6.317-3.844c4.104,0,6.932,2.913,6.932,7.947v7.688h0.758
		c1.186,0,1.583,0.402,1.583,1.588v0.09c0,1.189-0.397,1.592-1.583,1.592h-5.919c-1.195,0-1.594-0.402-1.594-1.592v-0.09
		c0-1.186,0.398-1.588,1.594-1.588h0.747v-7.511c0-2.869-1.283-4.416-3.891-4.416c-2.871,0-4.77,1.766-4.77,4.986v6.94h0.8
		c1.193,0,1.591,0.402,1.591,1.588v0.09c0,1.189-0.397,1.592-1.591,1.592H433.914z"/>
	<path clip-path="url(#SVGID_2_)" fill="#EE3124" d="M459.14,455.384V434.98h-1.233c-1.237,0-1.636-0.401-1.636-1.64v-0.082
		c0-1.2,0.398-1.592,1.636-1.592h2.781c2.167,0,2.915,0.75,2.915,2.912v20.805h0.927c1.195,0,1.591,0.396,1.591,1.585v0.094
		c0,1.188-0.396,1.592-1.591,1.592h-6.267c-1.195,0-1.594-0.403-1.594-1.592v-0.094c0-1.188,0.398-1.585,1.594-1.585H459.14z"/>
	<path clip-path="url(#SVGID_2_)" fill="#EE3124" d="M472.221,440.145c2.162,0,2.917,0.754,2.917,2.915v12.324h0.833
		c1.19,0,1.594,0.397,1.594,1.585v0.094c0,1.188-0.403,1.593-1.594,1.593h-6.138c-1.191,0-1.588-0.404-1.588-1.593v-0.094
		c0-1.188,0.396-1.585,1.588-1.585h0.888v-11.793h-0.845c-1.234,0-1.675-0.439-1.675-1.681v-0.089c0-1.229,0.44-1.677,1.675-1.677
		H472.221z M472.749,437.143c-1.548,0-2.916-1.149-2.916-2.876c0-1.674,1.368-2.823,2.916-2.823c1.546,0,2.827,1.149,2.827,2.823
		C475.576,435.993,474.295,437.143,472.749,437.143"/>
	<path clip-path="url(#SVGID_2_)" fill="#EE3124" d="M480.923,458.698c-1.195,0-1.589-0.402-1.589-1.592v-0.09
		c0-1.186,0.394-1.588,1.589-1.588h0.841v-11.792h-0.794c-1.242,0-1.685-0.442-1.685-1.679v-0.089c0-1.236,0.442-1.683,1.685-1.683
		h2.203c2.167,0,2.915,0.755,2.915,2.917v0.533c1.15-2.432,3.541-3.844,6.32-3.844c4.104,0,6.938,2.913,6.938,7.947v7.688h0.748
		c1.191,0,1.589,0.402,1.589,1.588v0.09c0,1.189-0.397,1.592-1.589,1.592h-5.916c-1.196,0-1.597-0.402-1.597-1.592v-0.09
		c0-1.186,0.4-1.588,1.597-1.588h0.744v-7.511c0-2.869-1.282-4.416-3.882-4.416c-2.872,0-4.774,1.766-4.774,4.986v6.94h0.796
		c1.193,0,1.593,0.402,1.593,1.588v0.09c0,1.189-0.399,1.592-1.593,1.592H480.923z"/>
	<path clip-path="url(#SVGID_2_)" fill="#EE3124" d="M507.783,450.831c0.356,2.831,2.297,4.771,5.741,4.771
		c1.64,0,2.873-0.392,3.891-1.015c1.146-0.707,1.813-0.618,2.734,0.351c0.883,0.932,0.843,1.549-0.219,2.3
		c-1.55,1.104-3.488,1.812-6.446,1.812c-6.493,0-10.251-4.111-10.251-9.631c0-5.524,4.196-9.675,9.764-9.675
		c5.302,0,8.567,3.45,9.32,8.175c0.351,2.123-0.312,2.912-2.476,2.912H507.783z M517.854,447.783
		c-0.128-2.604-1.854-4.589-4.856-4.589c-2.869,0-4.904,1.812-5.257,4.589H517.854z"/>
</g>
</svg>
