<?xml version="1.0" encoding="utf-8"?>
<!-- Generator: Adobe Illustrator 18.1.1, SVG Export Plug-In . SVG Version: 6.00 Build 0)  -->
<!DOCTYPE svg PUBLIC "-//W3C//DTD SVG 1.1//EN" "http://www.w3.org/Graphics/SVG/1.1/DTD/svg11.dtd">
<svg version="1.1"
	 id="svg2" xmlns:svg="http://www.w3.org/2000/svg" xmlns:rdf="http://www.w3.org/1999/02/22-rdf-syntax-ns#" xmlns:cc="http://creativecommons.org/ns#" xmlns:dc="http://purl.org/dc/elements/1.1/"
	 xmlns="http://www.w3.org/2000/svg" xmlns:xlink="http://www.w3.org/1999/xlink" x="0px" y="0px" viewBox="455.7 429.8 512 512"
	 enable-background="new 455.7 429.8 512 512" xml:space="preserve">
<path id="path2998" fill="#4285F4" d="M581.6,645.3h-59.7V663h42.4c-2.1,24.9-22.8,35.5-42.3,35.5c-25,0-46.8-19.7-46.8-47.2
	c0-26.8,20.8-47.5,46.8-47.5c20.1,0,31.9,12.8,31.9,12.8l12.4-12.9c0,0-15.9-17.7-45-17.7c-37,0-65.6,31.2-65.6,65
	c0,33.1,26.9,65.3,66.6,65.3c34.9,0,60.4-23.9,60.4-59.2C582.6,649.6,581.6,645.2,581.6,645.3L581.6,645.3z"/>
<path id="path3000" fill="#EA4335" d="M630.5,632.4c-24.5,0-42.1,19.2-42.1,41.5c0,22.7,17,42.2,42.4,42.2
	c22.9,0,41.7-17.5,41.7-41.7C672.5,646.7,650.7,632.4,630.5,632.4L630.5,632.4z M630.8,648.9c12.1,0,23.5,9.7,23.5,25.5
	c0,15.4-11.4,25.4-23.5,25.4c-13.4,0-23.9-10.7-23.9-25.5C606.8,659.7,617.2,648.9,630.8,648.9L630.8,648.9z"/>
<path id="path3005" fill="#FBBC05" d="M722,632.4c-24.5,0-42.1,19.2-42.1,41.5c0,22.7,17,42.2,42.4,42.2c22.9,0,41.7-17.5,41.7-41.7
	C764,646.7,742.2,632.4,722,632.4L722,632.4z M722.3,648.9c12.1,0,23.5,9.7,23.5,25.5c0,15.4-11.4,25.4-23.5,25.4
	c-13.4,0-23.9-10.7-23.9-25.5C698.3,659.7,708.7,648.9,722.3,648.9L722.3,648.9z"/>
<path id="path3007" fill="#4285F4" d="M811.8,632.5c-22.5,0-40.2,19.7-40.2,41.8c0,25.2,20.5,41.9,39.8,41.9
	c11.9,0,18.3-4.7,23-10.2v8.3c0,14.4-8.8,23.1-22,23.1c-12.8,0-19.2-9.5-21.4-14.9l-16.1,6.7c5.7,12.1,17.2,24.7,37.7,24.7
	c22.4,0,39.4-14.1,39.4-43.6V635h-17.6v7.1C829,636.3,821.6,632.5,811.8,632.5L811.8,632.5z M813.4,648.9c11,0,22.4,9.4,22.4,25.5
	c0,16.4-11.3,25.4-22.6,25.4c-12,0-23.2-9.7-23.2-25.2C790,658.5,801.6,648.9,813.4,648.9L813.4,648.9z"/>
<path id="path3011" fill="#EA4335" d="M930,632.4c-21.2,0-39,16.9-39,41.8c0,26.4,19.9,42,41.1,42c17.7,0,28.6-9.7,35.1-18.4
	l-14.5-9.6c-3.8,5.8-10,11.5-20.5,11.5c-11.8,0-17.2-6.4-20.5-12.7l56.1-23.3l-2.9-6.8C959.4,643.5,946.7,632.4,930,632.4L930,632.4
	z M930.7,648.5c7.6,0,13.2,4.1,15.5,8.9l-37.5,15.7C907.1,660.9,918.6,648.5,930.7,648.5L930.7,648.5z"/>
<path id="path3015" fill="#34A853" d="M864.2,713.7h18.4V590.3h-18.4V713.7z"/>
</svg>
