<?xml version="1.0" encoding="utf-8"?>
<!-- Generator: Adobe Illustrator 19.1.0, SVG Export Plug-In . SVG Version: 6.00 Build 0)  -->
<svg version="1.1" id="Layer_1" xmlns="http://www.w3.org/2000/svg" xmlns:xlink="http://www.w3.org/1999/xlink" x="0px" y="0px"
	 viewBox="-226 254 346.5 72" style="enable-background:new -226 254 346.5 72;" xml:space="preserve">
<style type="text/css">
	.st0{fill:#FFFFFF;}
	.st1{fill:url(#XMLID_3_);}
	.st2{display:none;}
	.st3{display:inline;}
	.st4{font-family:'MyriadPro-Regular';}
	.st5{font-size:12px;}
	.st6{enable-background:new    ;}
</style>
<g id="Layer_1_1_">
	<g id="XMLID_842_">
		<g id="XMLID_705_">
			<path id="XMLID_721_" class="st0" d="M-202.6,263.2v42.3h-10v-42.3H-226v-8.9h36.8v8.9H-202.6z"/>
			<path id="XMLID_719_" class="st0" d="M-181.1,305.6v-51.3h33.8v8.9h-23.8v12h20.2v8.9h-20.2v12.5h23.8v8.9h-33.8V305.6z"/>
			<path id="XMLID_717_" class="st0" d="M-120.4,306c-5.5,0-10.1-1.9-13.8-5.6c-2.2-2.2-3.6-4.8-4.2-7.7c-0.6-2.9-0.9-7.1-0.9-12.7
				s0.3-9.9,0.9-12.7c0.6-3,1.9-5.5,4.2-7.7c3.7-3.7,8.4-5.6,13.8-5.6c9.9,0,17.1,5.8,18.9,16.2h-10.2c-1.1-4.4-3.8-7.3-8.6-7.3
				c-2.7,0-4.9,0.9-6.4,2.7c-2.1,2.2-2.5,4.5-2.5,14.5c0,9.9,0.4,12.2,2.5,14.5c1.5,1.8,3.7,2.7,6.4,2.7c4.8,0,7.6-2.9,8.6-7.3h10.2
				C-103.2,300.2-110.6,306-120.4,306z"/>
			<path id="XMLID_715_" class="st0" d="M-65.5,305.6v-21.5h-17.4v21.5h-10v-51.3h10v21h17.4v-21h10v51.3H-65.5z"/>
			<path id="XMLID_713_" class="st0" d="M-13.2,305.6l-20.3-31.5v31.5h-10v-51.3h8.9l20.3,31.4v-31.4h10v51.3H-13.2z"/>
			<path id="XMLID_711_" class="st0" d="M7.6,305.6v-51.3h10v51.3H7.6z"/>
			<path id="XMLID_709_" class="st0" d="M46.7,306c-5.5,0-10.1-1.9-13.8-5.6c-2.2-2.2-3.6-4.8-4.2-7.7c-0.6-2.9-0.9-7.1-0.9-12.7
				s0.3-9.9,0.9-12.7c0.6-3,1.9-5.5,4.2-7.7c3.7-3.7,8.4-5.6,13.8-5.6c9.9,0,17.1,5.8,18.9,16.2H55.4c-1.1-4.4-3.8-7.3-8.6-7.3
				c-2.7,0-4.9,0.9-6.4,2.7c-2.1,2.2-2.5,4.5-2.5,14.5c0,9.9,0.4,12.2,2.5,14.5c1.5,1.8,3.7,2.7,6.4,2.7c4.8,0,7.6-2.9,8.6-7.3h10.2
				C63.9,300.2,56.5,306,46.7,306z"/>
			<path id="XMLID_706_" class="st0" d="M102.6,305.6l-3-9.1H81.4l-3.1,9.1H67.9l18.6-51.3h7.8l18.7,51.3H102.6z M90.7,269.4
				l-6.5,18.7h12.7L90.7,269.4z"/>
		</g>
		
			<linearGradient id="XMLID_3_" gradientUnits="userSpaceOnUse" x1="-226" y1="281.0439" x2="120.5" y2="281.0439" gradientTransform="matrix(1 0 0 -1 0 602)">
			<stop  offset="0" style="stop-color:#00FFFF"/>
			<stop  offset="0.1702" style="stop-color:#39E1EC"/>
			<stop  offset="0.3969" style="stop-color:#7FBDD6"/>
			<stop  offset="0.6015" style="stop-color:#B6A1C4"/>
			<stop  offset="0.7765" style="stop-color:#DE8CB7"/>
			<stop  offset="0.9151" style="stop-color:#F680AF"/>
			<stop  offset="1" style="stop-color:#FF7BAC"/>
		</linearGradient>
		<polygon id="XMLID_681_" class="st1" points="120.5,326 116.9,316 -226,316 -226,326 		"/>
	</g>
</g>
</svg>
