<svg xmlns="http://www.w3.org/2000/svg" viewBox="0 0 140 105" enable-background="new 0 0 140 105"><path d="M29.623 69.337l-3.63.64c-.035-.637-.01-1.255-.015-1.873-.004-.614 0-1.228 0-1.842V51.374l-.062-.005c-.038.256-.077.514-.112.772-.174 1.288-.345 2.577-.52 3.866-.174 1.287-.353 2.575-.527 3.863-.192 1.416-.38 2.83-.57 4.248l-.528 3.864c-.1.717-.197 1.433-.29 2.15-.04.303-.037.308-.354.364-1.08.193-2.163.384-3.244.575-.026.006-.054 0-.117-.004l-2.62-18.47-.047.003v18.96l-3.22.57V46.934l5.584-.985c.77 5.905 1.54 11.793 2.307 17.68h.05l2.382-18.513 5.505-.972c.057.222.082 24.493.025 25.192zm17.4-13.172V66.27l-3.73.658v-25.19l1.28-.23c1.62-.286 3.244-.573 4.867-.855.772-.134 1.545-.186 2.316.015.844.22 1.438.735 1.797 1.526.21.464.32.955.37 1.458.032.318.045.64.046.96.003 1.567.003 3.133 0 4.7-.004.578-.057 1.152-.203 1.714-.255.98-.797 1.76-1.632 2.332l-.236.163c.092.03.154.054.22.065 1.332.225 1.677 1.08 1.807 1.915.045.287.065.582.065.874.005 2.803.003 5.607.003 8.41v.255l-3.738.66v-.343c0-2.666 0-5.332-.002-7.998 0-.22-.004-.443-.044-.657-.12-.645-.52-.948-1.174-.876-.454.05-.904.14-1.355.216-.205.036-.41.076-.66.12zm.016-3.368c.27-.046.52-.082.77-.13.447-.09.904-.15 1.34-.283.63-.193.97-.657 1.047-1.31.02-.163.033-.328.033-.493.003-1.7.003-3.403 0-5.105 0-.164-.012-.33-.036-.492-.08-.55-.42-.838-.976-.836-.09 0-.183.007-.273.022-.55.094-1.1.192-1.648.29-.087.015-.173.035-.26.052.002 2.77.002 5.512.002 8.287zm27.713 19.757v-.373c0-2.664.002-5.33-.003-7.997 0-.245-.02-.497-.075-.735-.115-.498-.426-.745-.937-.768-.172-.008-.348.01-.52.04-.558.09-1.115.19-1.698.293v10.11l-3.734.658V48.594l.87-.16 5.166-.908c.66-.116 1.323-.185 1.995-.09 1.113.158 1.89.74 2.3 1.793.216.552.323 1.13.327 1.72.013 1.868.01 3.737.002 5.606-.002.467-.082.93-.205 1.382-.254.95-.79 1.702-1.595 2.262l-.202.14c-.007.006-.01.016-.033.05.115.026.222.054.33.076.86.175 1.407.687 1.6 1.54.09.398.143.814.145 1.222.012 2.795.007 5.59.007 8.384v.284l-3.74.66zm-3.22-21.198v8.3c.505-.09.992-.168 1.476-.263.25-.05.502-.103.74-.195.474-.184.774-.542.893-1.037.043-.174.066-.36.066-.54.004-1.814.003-3.627 0-5.44 0-.155-.02-.31-.055-.463-.103-.45-.396-.69-.855-.706-.136-.004-.276-.005-.41.018-.612.104-1.224.216-1.857.33zm-16.175 3.69l3.633-.64v.35c0 1.586 0 3.17.005 4.756 0 .21.018.423.067.625.1.416.404.655.834.665.517.012 1.023-.08 1.507-.258.628-.23.883-.732.933-1.365.007-.093.007-.185.007-.277 0-1.1.003-2.2-.002-3.298 0-.2-.02-.402-.046-.602-.054-.417-.243-.767-.577-1.026-.173-.134-.357-.257-.546-.367-1.242-.72-2.49-1.438-3.732-2.158-.15-.087-.297-.18-.442-.277-.954-.637-1.47-1.535-1.578-2.67-.026-.273-.05-.548-.052-.822-.004-1.31-.005-2.62.003-3.93.002-.56.086-1.114.236-1.654.407-1.47 1.322-2.494 2.73-3.058.465-.186.956-.32 1.447-.422.76-.155 1.53-.275 2.3-.384.528-.075 1.06-.052 1.584.07.914.21 1.552.748 1.923 1.606.25.58.367 1.195.374 1.82.02 1.63.01 3.26.012 4.89 0 .028-.008.055-.018.12l-3.654.645v-.326c0-1.336.003-2.673-.003-4.01 0-.21-.014-.424-.06-.627-.104-.438-.39-.683-.843-.687-.515-.005-1.024.08-1.5.288-.454.2-.703.572-.787 1.054-.028.162-.04.328-.04.492-.005.924-.008 1.85 0 2.775.003.236.035.475.08.707.077.396.3.703.63.933.11.08.23.15.347.22 1.268.733 2.538 1.463 3.803 2.2.252.148.497.312.73.487.778.58 1.194 1.372 1.313 2.325.035.29.06.584.062.876.005 1.567.004 3.133 0 4.7-.003.56-.088 1.114-.24 1.654-.414 1.465-1.34 2.47-2.742 3.05-.666.276-1.366.41-2.07.53-.522.092-1.044.19-1.57.26-.528.07-1.058.077-1.587-.017-1.046-.186-1.754-.776-2.135-1.765-.2-.52-.28-1.06-.316-1.61-.01-.173-.01-.348-.01-.522V55.37c-.002-.096-.002-.196-.002-.325zM38.256 63.86c-1.3.23-2.567.452-3.863.68l-.458 4.038c-1.154.203-2.278.4-3.385.596-.028-.025-.035-.03-.04-.037-.006-.007-.013-.015-.013-.023.01-.12.017-.238.033-.355 1.144-8.448 2.29-16.894 3.435-25.34.003-.025.023-.048.04-.085l4.924-.867 3.52 24.607-3.703.654-.492-3.87zm-.418-3.354l-1.503-12.218h-.05l-1.473 12.75 3.026-.532zM88.24 44.984v3.496l-4.536.803v7.113l4.33-.76c.06.208.07 3.2.01 3.493l-4.344.766v7.58c1.544-.27 3.07-.54 4.617-.81v3.495l-8.357 1.474V46.44c2.753-.482 5.506-.967 8.28-1.456zm1.383 24.95V44.74c2.753-.484 5.506-.97 8.282-1.46v3.497l-4.533.802v7.11l4.362-.765v3.495l-4.362.773v7.573c1.537-.246 3.057-.543 4.607-.797v3.487c-2.77.497-5.55.98-8.358 1.476zm17.503-3.084l-7.822 1.38V43.036l3.716-.657v21.693l4.106-.718v3.494zM22.664 37.395l-2.605.458v6.64l-1.62.287V30.244l1.61-.287v6.33c.882-.154 1.727-.303 2.594-.456v-6.327l1.612-.284v14.535l-1.593.284v-6.644zm99.04 15.787l1.928-.338c.24 1.386.45 2.766.673 4.143.224 1.382.445 2.764.7 4.15.02-.062.048-.124.058-.19.263-1.727.524-3.456.786-5.184.16-1.077.327-2.153.49-3.23.014-.095.03-.176.15-.196.57-.094 1.137-.193 1.705-.29.016-.002.034.008.067.017V63.1c-.036.017-.067.04-.1.046l-1.088.19V54.62l-.063-.006-1.405 8.98-1.255.224c-.184-.95-.32-1.896-.48-2.837-.162-.946-.313-1.895-.47-2.843-.157-.948-.315-1.895-.518-2.84v8.774l-1.184.213c-.02-3.72.01-7.404.006-11.104zm-96.36-24.158l4.41-.777.005.778v.762l-2.81.5v4.802l2.69-.47v1.52l-2.69.48v5.114l2.796-.488c.06.2.076 1.057.028 1.537l-4.43.78v-14.54zm91.06 30.614c0-1.135-.005-2.27.003-3.405.002-.282.024-.568.075-.845.148-.8.628-1.325 1.396-1.58.48-.16.976-.242 1.48-.266.136-.007.276 0 .41.023.604.11.97.522 1.064 1.2.03.207.043.418.044.628.003 2.316.005 4.632-.002 6.948 0 .3-.03.607-.092.9-.144.684-.552 1.167-1.2 1.43-.556.23-1.146.33-1.742.338-.803.01-1.282-.427-1.392-1.223-.03-.217-.043-.438-.044-.657-.003-1.164 0-2.326 0-3.49zm1.243-.207v3.547c0 .12 0 .24.02.356.055.327.267.504.598.473.254-.024.508-.073.754-.14.367-.097.556-.362.604-.732.012-.09.01-.183.01-.274.002-2.383.002-4.764 0-7.146 0-.09 0-.184-.012-.274-.05-.338-.24-.51-.577-.494-.218.01-.437.047-.65.095-.502.115-.728.398-.747.91-.004.08-.003.165-.003.247v3.435zM15.36 45.325l-1.62.284c-.013-2.178.002-4.334 0-6.49V32.63c-.716.084-1.397.25-2.106.348v-1.532c1.923-.35 3.857-.683 5.786-1.023.066.198.082 1.116.03 1.534l-2.09.375v12.992zm98.812 16.02c.396-.07.77-.14 1.162-.21.014.042.033.074.033.106-.003.843.02 1.687-.02 2.527-.05 1.052-.606 1.72-1.622 1.99-.413.11-.844.185-1.27.202-.855.033-1.355-.427-1.452-1.28-.02-.162-.028-.33-.028-.492-.002-2.374-.002-4.746 0-7.12 0-.33.028-.657.128-.975.165-.524.478-.93.972-1.17.663-.322 1.372-.453 2.106-.397.53.04.883.342 1.04.845.067.217.11.45.116.674.016.687.008 1.374.008 2.06 0 .036-.01.072-.018.134l-1.174.21c-.005-.103-.014-.182-.014-.26V56.51c0-.08.002-.164-.006-.246-.04-.41-.284-.606-.69-.552-.164.022-.327.05-.488.086-.48.105-.724.398-.74.886-.003.046-.002.092-.002.137-.002 2.355-.004 4.71-.003 7.064 0 .155.002.314.035.463.06.274.23.427.505.406.298-.022.6-.075.886-.16.297-.086.46-.322.505-.627.02-.145.03-.292.033-.438.003-.623 0-1.246 0-1.87v-.32zm-4.384 3.19v1.847l-1.16.206v-1.838l1.16-.213z"/></svg>